<?xml version="1.0" encoding="utf-8"?>
<!-- Generator: Adobe Illustrator 16.0.4, SVG Export Plug-In . SVG Version: 6.00 Build 0)  -->
<!DOCTYPE svg PUBLIC "-//W3C//DTD SVG 1.1//EN" "http://www.w3.org/Graphics/SVG/1.1/DTD/svg11.dtd">
<svg version="1.1" id="Layer_1" xmlns="http://www.w3.org/2000/svg" xmlns:xlink="http://www.w3.org/1999/xlink" x="0px" y="0px"
	 width="134.286px" height="47.76px" viewBox="0 0 134.286 47.76" enable-background="new 0 0 134.286 47.76" xml:space="preserve">
<symbol  id="Banner:_App_Store" viewBox="-67.143 -23.88 134.285 47.76">
	<g>
		<g>
			<path fill="#FFFFFF" d="M-48.835,11.398h2.51c0.166,0,0.301,0.134,0.301,0.294c0,0.165-0.135,0.3-0.301,0.3h-2.51
				c-0.16,0-0.297-0.135-0.297-0.3C-49.132,11.532-48.995,11.398-48.835,11.398z M-47.581-10.608c-0.719,0-1.304-0.587-1.304-1.31
				c0-0.718,0.585-1.306,1.304-1.306c0.722,0,1.307,0.588,1.307,1.306C-46.274-11.195-46.859-10.608-47.581-10.608z M-53.985-9.487
				h12.812V9.464h-12.812V-9.487z M-12.899-3.264c-0.606,0-1.155-0.201-1.652-0.603c-0.494-0.41-0.815-0.938-0.969-1.594
				c-0.075-0.305-0.112-0.554-0.112-0.752V-8.06c0-0.808,0.242-1.489,0.739-2.045c0.494-0.549,1.138-0.826,1.928-0.826
				c0.926,0,1.652,0.353,2.168,1.069c0.518,0.715,0.774,1.657,0.774,2.834c0,1.075-0.241,1.967-0.727,2.663
				C-11.286-3.636-12.001-3.264-12.899-3.264z M32.044-3.112c-0.986,0-1.74-0.438-2.255-1.317c-0.445-0.726-0.664-1.61-0.664-2.657
				c0-1.021,0.219-1.891,0.664-2.617c0.528-0.879,1.272-1.318,2.235-1.318c0.938,0,1.679,0.444,2.207,1.344
				c0.462,0.736,0.688,1.619,0.688,2.634c0,1.016-0.218,1.89-0.659,2.615C33.736-3.551,33.003-3.112,32.044-3.112z M-0.714-3.264
				c-0.61,0-1.157-0.201-1.654-0.603c-0.493-0.41-0.818-0.938-0.971-1.594C-3.413-5.765-3.45-6.014-3.45-6.212V-8.06
				c0-0.808,0.242-1.489,0.74-2.045c0.494-0.549,1.138-0.826,1.924-0.826c0.934,0,1.653,0.353,2.171,1.069
				c0.521,0.715,0.778,1.657,0.778,2.834c0,1.075-0.244,1.967-0.729,2.663C0.897-3.636,0.183-3.264-0.714-3.264z M-26.173,0.701
				h-0.044c-0.155-0.653-0.395-1.617-0.731-2.897l-1.278-4.015h4.127l-1.295,4.015C-25.534-1.782-25.795-0.816-26.173,0.701z
				 M50.729-2.991c-0.804,0-1.456-0.343-1.961-1.007c-0.411-0.532-0.655-1.172-0.729-1.914h5.131
				c0.015,0.729-0.143,1.356-0.475,1.891C52.265-3.338,51.61-2.991,50.729-2.991z M-15.308,7.95
				c0.033,0.105,0.033,0.212,0.033,0.316v0.787c-1.02,0.011-1.993-0.199-1.993-1.068c0-0.562,0.366-0.819,0.821-0.819
				C-15.86,7.166-15.449,7.54-15.308,7.95z M-28.753,11.538c-0.152,0.482-0.281,1.021-0.398,1.479h-0.022
				c-0.118-0.458-0.247-1.008-0.376-1.479l-0.611-1.947h2.031L-28.753,11.538z M53.005,12.103c1.852,0,2.461-1.525,2.461-2.779
				c0-0.27-0.022-0.481-0.047-0.609h-3.82c0.034-1.032,0.831-1.479,1.756-1.479c0.67,0,1.138,0.105,1.584,0.258l0.212-0.985
				c-0.493-0.211-1.172-0.362-1.993-0.362c-1.854,0-2.944,1.136-2.944,2.882C50.213,10.612,51.175,12.103,53.005,12.103z
				 M30.116,11.974l0.07-0.857h0.036c0.258,0.447,0.878,0.986,1.829,0.986c0.996,0,2.029-0.645,2.029-2.451v-3.39h-1.442v3.226
				c0,0.822-0.306,1.442-1.091,1.442c-0.575,0-0.973-0.411-1.127-0.845c-0.047-0.117-0.068-0.294-0.068-0.457V6.262H28.91v4.011
				c0,0.657-0.024,1.208-0.049,1.701H30.116z M14.971,12.103c1.853,0,2.465-1.525,2.465-2.779c0-0.27-0.025-0.481-0.05-0.609h-3.82
				c0.033-1.032,0.831-1.479,1.756-1.479c0.668,0,1.139,0.105,1.584,0.258l0.211-0.985c-0.492-0.211-1.172-0.362-1.992-0.362
				c-1.853,0-2.943,1.136-2.943,2.882C12.181,10.612,13.142,12.103,14.971,12.103z M9.06,14.589h1.44V6.262H9.06V14.589z
				 M-2.38,11.081c-0.562,0-1.149-0.177-1.535-0.421l-0.281,0.938c0.421,0.257,1.159,0.504,2.062,0.504
				c1.828,0,2.358-1.161,2.358-2.416V7.634c0-0.518,0.022-1.021,0.093-1.372h-1.303l-0.105,0.633h-0.034
				c-0.34-0.445-0.938-0.762-1.688-0.762c-1.151,0-1.796,0.834-1.796,1.7c0,1.433,1.278,2.17,3.389,2.157v0.095
				C-1.22,10.459-1.372,11.081-2.38,11.081z M-10.907,14.353c0.492,0,0.797-0.34,0.807-0.785c0-0.422-0.314-0.774-0.819-0.774
				c-0.48,0-0.797,0.353-0.797,0.774C-11.717,14.013-11.389,14.353-10.907,14.353z M-10.194,11.974V6.262h-1.44v5.712H-10.194z
				 M-30.03,14.167h1.841l2.567-7.905h-1.559l-0.715,2.239h-2.499l-0.681-2.239h-1.488L-30.03,14.167z M-39.637-12.044
				c0-1.393-1.135-2.52-2.526-2.52h-10.832c-1.393,0-2.527,1.127-2.527,2.52v24.069c0,1.392,1.135,2.524,2.527,2.524h10.832
				c1.392,0,2.526-1.133,2.526-2.524V-12.044z M-22.226-12.62l-1.438,4.513h-4.997l-1.369-4.513h-2.554l4.947,15.375h3.061
				l4.974-15.375H-22.226z M-21.666,6.262h-1.42l-2.123,5.712h1.562l0.924-2.897c0.166-0.505,0.283-0.961,0.389-1.432h0.035
				c0.105,0.471,0.234,0.918,0.388,1.432l0.914,2.897h1.515L-21.666,6.262z M-18.696,7.833c0,1.433,1.277,2.17,3.389,2.157v0.095
				c0,0.374-0.152,0.996-1.16,0.996c-0.563,0-1.15-0.177-1.538-0.421l-0.281,0.938c0.422,0.257,1.161,0.504,2.065,0.504
				c1.828,0,2.355-1.161,2.355-2.416V7.634c0-0.518,0.023-1.021,0.095-1.372h-1.304l-0.104,0.633h-0.037
				c-0.338-0.445-0.937-0.762-1.686-0.762C-18.052,6.133-18.696,6.967-18.696,7.833z M-9.052-11.415
				c-0.914-0.969-2.057-1.457-3.418-1.457c-1.469,0-2.522,0.524-3.163,1.577v-5.823h-2.462v11.941c0,1.186-0.031,2.398-0.095,3.643
				h2.169l0.134-1.754h0.044c0.824,1.318,2.071,1.979,3.744,1.979c1.31,0,2.398-0.514,3.278-1.551
				c0.871-1.031,1.31-2.396,1.31-4.082C-7.511-8.833-8.021-10.317-9.052-11.415z M-6.486,6.262h-1.44v8.327h1.44V6.262z
				 M3.13-11.415c-0.918-0.969-2.055-1.457-3.418-1.457c-1.467,0-2.521,0.524-3.162,1.577v-5.823h-2.465v11.941
				c0,1.186-0.031,2.398-0.092,3.643h2.162l0.143-1.754h0.045C-2.831-1.97-1.591-1.31,0.083-1.31c1.31,0,2.401-0.514,3.275-1.551
				C4.235-3.892,4.67-5.257,4.67-6.942C4.67-8.833,4.16-10.317,3.13-11.415z M4.822,6.133c-0.737,0-1.396,0.281-1.806,0.983H2.994
				L2.923,6.262H1.693c0.022,0.386,0.045,1.02,0.045,1.606v6.721h1.44v-3.4h0.024c0.353,0.551,0.975,0.914,1.83,0.914
				c1.396,0,2.393-1.161,2.382-2.895C7.415,7.153,6.112,6.133,4.822,6.133z M17.224-11.501c-1.006-0.898-2.4-1.345-4.19-1.345
				c-1.657,0-2.982,0.32-3.984,0.957l0.573,2.052c1.079-0.636,2.263-0.958,3.555-0.958c0.932,0,1.651,0.212,2.169,0.626
				c0.515,0.418,0.773,0.975,0.773,1.684c0,0.615-0.214,1.141-0.637,1.57c-0.429,0.425-1.131,0.815-2.12,1.184
				c-2.69,1.001-4.037,2.47-4.037,4.401c0,1.262,0.471,2.299,1.422,3.104c0.951,0.805,2.209,1.208,3.777,1.208
				c1.398,0,2.562-0.245,3.492-0.729l-0.621-2.006c-0.868,0.468-1.853,0.707-2.951,0.707c-0.867,0-1.551-0.22-2.041-0.636
				c-0.408-0.387-0.615-0.85-0.615-1.397c0-0.603,0.236-1.106,0.706-1.51c0.413-0.361,1.159-0.756,2.235-1.183
				c1.326-0.525,2.297-1.153,2.923-1.87c0.622-0.715,0.937-1.603,0.937-2.668C18.589-9.617,18.129-10.685,17.224-11.501z
				 M25.909-3.38H23.19v-5.389c0-1.367,0.484-2.045,1.441-2.045c0.441,0,0.803,0.031,1.094,0.106l0.071-1.865
				c-0.488-0.183-1.126-0.275-1.917-0.275c-0.969,0-1.733,0.293-2.28,0.89c-0.554,0.59-0.825,1.588-0.825,2.988v5.59h-1.617v1.846
				h1.617v2.031l2.416,0.729v-2.76h2.719V-3.38z M24.521,6.133c-1.607,0-2.862,1.103-2.862,2.943c0,1.878,1.233,3.026,2.956,3.026
				c1.7,0,2.838-1.198,2.838-2.934C27.452,7.071,25.974,6.133,24.521,6.133z M36.019-11.187c-1.023-1.122-2.377-1.686-4.06-1.686
				c-1.631,0-2.932,0.541-3.897,1.619c-0.965,1.078-1.445,2.445-1.445,4.084c0,1.718,0.496,3.125,1.493,4.221
				c0.998,1.097,2.336,1.639,4.024,1.639c1.633,0,2.94-0.535,3.928-1.621c0.94-1.041,1.413-2.401,1.413-4.057
				C37.475-8.695,36.99-10.089,36.019-11.187z M38.563,11.974h0.81v1.065l1.419,0.401v-1.467h1.373v-1.079h-1.373V8.372
				c0-0.702,0.188-1.055,0.738-1.055c0.258,0,0.4,0.012,0.562,0.059l0.024-1.091c-0.211-0.081-0.598-0.152-1.044-0.152
				c-0.54,0-0.975,0.177-1.244,0.468c-0.314,0.329-0.456,0.857-0.456,1.607v2.687h-0.81V11.974z M44.888-3.699
				c-0.242,0.044-0.504,0.063-0.775,0.063c-0.867,0-1.533-0.327-2.007-0.979c-0.413-0.58-0.617-1.301-0.617-2.188v-5.816h-2.464v7.6
				c0,1.271-0.02,2.433-0.066,3.486h2.145l0.094-2.121h0.066c0.257,0.727,0.666,1.314,1.23,1.753c0.549,0.4,1.144,0.593,1.783,0.593
				c0.226,0,0.432-0.012,0.611-0.041V-3.699z M45.263,9.687V6.262H43.82v8.327h1.442v-3.39h0.023
				c0.174,0.269,0.422,0.493,0.715,0.645c0.292,0.165,0.634,0.259,0.996,0.259c0.974,0,1.994-0.645,1.994-2.475V6.262h-1.442v3.213
				c0,0.822-0.306,1.455-1.101,1.455c-0.565,0-0.964-0.376-1.127-0.81C45.274,9.99,45.263,9.839,45.263,9.687z M55.43-7.674h-7.392
				c0.027-1.095,0.387-1.927,1.073-2.505c0.622-0.519,1.428-0.778,2.417-0.778c1.096,0,2.091,0.175,2.989,0.53l0.388-1.712
				c-1.047-0.462-2.288-0.686-3.722-0.686c-1.716,0-3.065,0.503-4.046,1.515c-0.98,1.011-1.475,2.367-1.475,4.072
				c0,1.675,0.46,3.062,1.368,4.178c0.964,1.186,2.255,1.777,3.88,1.777c1.602,0,2.811-0.592,3.629-1.777
				c0.651-0.945,0.98-2.11,0.98-3.496C55.521-6.992,55.487-7.364,55.43-7.674z M4.505,10.977c-0.585,0-1.125-0.423-1.276-1.056
				c-0.025-0.105-0.05-0.234-0.05-0.376V8.62c0-0.119,0.013-0.237,0.037-0.342c0.152-0.585,0.657-1.008,1.277-1.008
				c0.904,0,1.455,0.715,1.455,1.875C5.948,10.155,5.468,10.977,4.505,10.977z M14.889,11.116c-0.891,0-1.267-0.807-1.323-1.395
				h2.508C16.084,10.25,15.85,11.116,14.889,11.116z M24.579,11.058c-1.02,0-1.431-0.995-1.431-1.946
				c0-1.101,0.552-1.936,1.419-1.936c0.82,0,1.395,0.798,1.395,1.958C25.962,10.027,25.562,11.058,24.579,11.058z M-3.177,7.985
				c0-0.562,0.364-0.819,0.819-0.819c0.587,0,0.998,0.374,1.138,0.784c0.035,0.105,0.035,0.212,0.035,0.316v0.787
				C-2.204,9.064-3.177,8.854-3.177,7.985z M52.921,11.116c-0.889,0-1.266-0.807-1.322-1.395h2.508
				C54.118,10.25,53.882,11.116,52.921,11.116z"/>
		</g>
	</g>
	<g>
		<path fill="#FFFFFF" d="M60.704-23.88h-121.41c-3.549,0-6.437,2.884-6.437,6.43v34.892c0,3.551,2.888,6.438,6.437,6.438h121.41
			c3.55,0,6.438-2.888,6.438-6.438V-17.45C67.143-20.996,64.254-23.88,60.704-23.88z M-60.706,22.212
			c-2.629,0-4.771-2.141-4.771-4.771V-17.45c0-2.626,2.142-4.764,4.771-4.764h121.41c2.631,0,4.771,2.138,4.771,4.764v34.892
			c0,2.63-2.14,4.771-4.771,4.771H-60.706z"/>
	</g>
</symbol>
<use xlink:href="#Banner:_App_Store"  width="134.285" height="47.76" x="-67.143" y="-23.88" transform="matrix(1 0 0 -1 67.1426 23.8799)" overflow="visible"/>
</svg>
