<?xml version="1.0" encoding="utf-8"?>
<!-- Generator: Adobe Illustrator 16.0.4, SVG Export Plug-In . SVG Version: 6.00 Build 0)  -->
<!DOCTYPE svg PUBLIC "-//W3C//DTD SVG 1.1//EN" "http://www.w3.org/Graphics/SVG/1.1/DTD/svg11.dtd">
<svg version="1.1" id="Layer_1" xmlns="http://www.w3.org/2000/svg" xmlns:xlink="http://www.w3.org/1999/xlink" x="0px" y="0px"
	 width="18.499px" height="17px" viewBox="40.75 78.945 18.499 17" enable-background="new 40.75 78.945 18.499 17"
	 xml:space="preserve">
<g id="Captions" display="none">
</g>
<g>
	<path fill="#7A8EA3" d="M57.75,78.945H42.249c-0.828,0-1.5,0.671-1.5,1.5v2.75c0,0.829,0.672,1.5,1.5,1.5h1.5v8
		c0,0.554,0.448,0.999,1,0.999H53c0.552,0,1-0.445,1-0.999V81.946h0.998v1v1.749v10.001h-8.999v0.25c0,0.552,0.448,0.999,1,0.999
		h8.25c0.554,0,0.999-0.447,0.999-0.999V84.695h1.502c0.827,0,1.498-0.671,1.498-1.5v-2.75
		C59.248,79.616,58.577,78.945,57.75,78.945z M52.75,92.444H45V81.946h7.75V92.444L52.75,92.444z"/>
	<path fill="#7A8EA3" d="M48.589,88.662c-0.542,0-1.032-0.174-1.382-0.366l-0.25,0.976c0.316,0.183,0.857,0.333,1.415,0.358v0.79
		h0.816v-0.85c0.958-0.166,1.481-0.799,1.481-1.541c0-0.749-0.398-1.208-1.39-1.557c-0.708-0.267-0.999-0.44-0.999-0.717
		c0-0.232,0.175-0.467,0.716-0.467c0.601,0,0.983,0.193,1.2,0.284l0.242-0.939c-0.275-0.134-0.65-0.253-1.207-0.276v-0.731h-0.817
		v0.791c-0.891,0.174-1.407,0.749-1.407,1.481c0,0.807,0.608,1.225,1.499,1.524c0.616,0.207,0.883,0.407,0.883,0.724
		C49.389,88.479,49.064,88.662,48.589,88.662z"/>
</g>
</svg>
