<?xml version="1.0" encoding="utf-8"?>
<!-- Generator: Adobe Illustrator 16.0.0, SVG Export Plug-In . SVG Version: 6.00 Build 0)  -->
<!DOCTYPE svg PUBLIC "-//W3C//DTD SVG 1.1//EN" "http://www.w3.org/Graphics/SVG/1.1/DTD/svg11.dtd">
<svg version="1.1" id="Layer_1" xmlns="http://www.w3.org/2000/svg" xmlns:xlink="http://www.w3.org/1999/xlink" x="0px" y="0px"
	 width="900px" height="1400px" viewBox="0 0 900 1400" enable-background="new 0 0 900 1400" xml:space="preserve">
<g>
	<path fill="#94A3B3" d="M55.2,759.2c-0.4-0.4-0.4-1.2-0.8-1.601c-0.4-1.199,0-2.399,1.2-2.8c1.2-0.399,2.4-0.399,3.6-0.399
		c2.8,0,5.2,0,8,0c2,0,4,0,6-0.801c0.8-0.8,1.2-2,1.2-3.199c0-0.801,0-1.601,0-2.4c0-40.8,0-82,0-122.8c0-2.4,0-4.8,0-7.2
		c0-3.6-0.4-7.2-1.2-10.4c-0.8-2.399-1.2-4.8-3.2-6.399c-1.6-1.2-3.2-2-5.2-2c-3.2,0-6.4,0-10-0.4c-1.2,0-2.8-0.399-4-0.8
		c-0.8,0-1.6-0.4-1.6-1.2c-0.4-1.6,0.4-2.8,2-2.8c1.2,0,2,0,3.2,0c9.6,0,18.8,0,28.4,0c4.4,0,8.4-0.8,12.8-0.8c1.6,0,2.8,0,4.4,0
		c8-0.4,16-0.4,24-0.4c3.2,0,6.8,0.4,10,1.2c2,0.4,4,0.8,6,1.2c1.2,0.399,2.4,0.8,3.2,1.2c0.8,0.399,1.6,0.399,2.4,0.8
		c3.2,1.6,6.4,3.2,8.8,5.6c2.4,2,4.4,4.4,6,7.2c0.8,1.2,1.6,2.4,2,4c1.2,3.2,2.4,6,2.8,9.6c0.4,4,0.8,8,0.4,12.4
		c-0.4,3.2-1.2,6.4-2,9.2c-0.8,2-1.6,4-2.8,6c-2.4,4-4.8,7.2-8.4,10c-1.6,1.2-2.8,2.399-4.4,3.2c-1.6,1.199-3.6,2.399-5.2,3.6
		c-1.6,1.2-3.6,2.4-5.2,3.6c-0.4,0.4-0.8,0.801-0.8,1.601c1.6,0.8,3.6,1.2,5.2,2c2,0.8,4.4,2,6.4,2.8c2,1.2,4.4,2,6.4,3.2
		c1.2,0.399,2,1.2,3.2,2c3.6,2.8,7.2,5.6,9.6,9.6c1.6,2.4,2.8,4.4,3.6,6.8c0.8,2.4,1.6,5.2,2,8c0.8,4,0.8,8.4,0.8,12.4
		c-0.4,3.6-0.8,7.6-2,11.2c-1.2,3.6-2.8,6.8-5.2,10c-1.6,2.399-3.6,4.399-5.6,6.399c-2.4,2.4-5.2,4-8,5.601
		c-2.4,1.2-4.8,2.399-7.2,3.2c-2.8,0.8-5.6,2-8.8,2.8c-3.6,0.8-7.2,1.2-10.4,2c-2,0.399-3.6,0.399-5.6,0.399
		c-3.6,0.4-7.2,0.4-10.8,0c-3.6-0.399-7.2-0.8-10.4-1.199c-6.4-1.2-13.2-1.601-19.6-1.2c-3.6,0-7.6,0.399-11.2,0.399
		c-3.2,0-6.4,0.4-9.6,0.4c-0.8,0-1.6,0-2,0C56.4,759.6,56,759.2,55.2,759.2z M95.6,675.6c-1.2,1.2-2,2.4-2,4
		c0,0.801,0,1.601,0,2.801c0,16,0,32.399,0,48.399c0,2.4,0,5.2,0.4,7.601c0,1.199,0.4,2.399,0.4,3.199c0.4,2.4,0.8,4.801,1.2,7.2
		c0.4,1.601,1.2,3.601,2.8,4.4c1.2,0.8,2.8,1.2,4,1.6c4,0.8,8,1.601,12,1.601c3.6,0,7.2,0,10.8-0.801c3.2-0.8,6.4-1.6,9.6-3.199
		c1.2-0.801,2.4-1.2,3.6-2c3.2-1.601,5.6-4.4,7.6-7.2c1.2-1.601,2.4-3.601,3.2-5.601c1.6-3.6,2.8-7.199,3.6-11.199
		c0.8-4.4,0.8-9.2,0.4-13.601c-0.8-5.6-2.4-11.2-5.2-16.399c-1.6-2.801-3.6-5.601-5.6-8c-2-2-4-3.601-6-5.2c-2.8-2-6-3.601-8.8-5.2
		c-2-0.8-4-1.2-5.6-2c-2.4-0.8-4.8-1.2-7.2-1.6c-2.4-0.4-4.8-0.801-7.2-0.801C102.8,674,99.2,673.6,95.6,675.6z M95.6,669.6
		c1.2,0,2,0,3.2,0c4.4,0,8.8,0,12.8,0c2.4,0,4.8,0.4,7.2,0.4c1.2,0,2.4,0,3.6,0.4c2,0,4.4,0.399,6.4,0.8c0.8,0,1.6,0,2.4-0.8
		c1.2-0.801,2.4-2,3.6-2.801c3.2-2.399,5.6-5.199,8-8.399c2.4-3.2,3.6-7.2,4.8-10.8c0.8-4.4,1.2-8.4,0.8-12.801
		c-0.4-3.6-1.2-7.199-2.4-10.8c-1.2-3.6-2.8-6.8-4.8-10c-2.4-3.6-5.2-7.2-8.4-9.6c-2.8-2-5.6-3.601-9.2-4.8
		c-3.2-1.2-6.8-1.601-10.4-2c-2.4,0-4.8,0-7.2,0c-2.8,0-6,0.399-8.8,1.199c-2.8,0.801-4,2.4-4,5.2c0,0.8,0,1.601,0,2.8
		c0,18.801,0,37.601,0,56c0,0.801,0,1.601,0,2.801c0,0.8,0.4,1.6,0.8,2.399C94.4,668.8,95.2,669.2,95.6,669.6z"/>
	<path fill="#94A3B3" d="M480,649.2c0.4,1.2,0,2-0.4,2.8c-1.6,2.4-3.199,4.8-4.8,7.2c-1.6,2.399-3.6,4.399-5.2,6.399
		c-2,2.4-4.399,4.801-6.8,6.801c-4.399,4.399-9.2,8.399-14,12.399c-2,1.601-3.6,2.8-5.6,4.4c-2.8,2.399-5.601,4.8-8.4,7.2
		c-0.8,0.8-1.6,1.6-2.8,2.399c-0.8,0.8-0.8,1.2,0,2.4c1.2,2,2.4,4,4,5.6c1.6,2.4,3.6,4.4,5.6,6.4c2.4,3.2,5.2,6,7.601,9.2
		c2.8,3.6,5.6,6.8,8.8,10.399c2.8,3.2,5.6,6.8,8.4,10c1.6,2,3.6,4,5.6,6s4,3.601,6.4,4.8c1.6,0.801,3.199,1.2,5.199,1.2
		s3.601,0,5.601,0.4c0.399,0,1.2,0.399,1.6,0.399c1.2,0.4,1.2,0.801,1.2,2c0,0.801-0.4,1.601-1.2,1.601
		c-1.6,0.399-3.2,0.399-4.399,0.399c-4.4,0-8.801,0-13.2,0c-2.8,0-6,0-8.8,0.4c-2.801,0-5.2-0.8-7.2-3.2c-1.601-2-3.601-4-5.2-6.399
		c-2-2-3.6-4.4-5.6-6.4c-2.801-3.2-5.601-6.4-8-9.6c-3.2-4-6-8-9.2-12c-2.8-3.601-5.601-7.2-8.4-11.2c-1.6-2-2.399-2-4.8-0.8
		c-3.2,2-6.8,4-10,6.399c-1.6,0.8-3.2,2-4.4,2.8c-1.199,0.801-1.6,1.601-1.6,3.2c0,7.2,0,14.4,0,21.601c0,2,0,3.6,0.4,5.6
		c0.8,2.4,2.399,3.2,4.8,3.6c3.6,0.4,7.2,0.4,10.399,0.4c2,0,3.601,0,5.601,0.4c1.6,0,2.8,1.199,2.399,3.199
		c0,0.801-0.399,1.2-1.199,1.601C421.6,759.6,420.8,759.6,420,759.6c-4.8,0-9.6-0.399-14-0.399s-9.2,0-13.6,0c-4.4,0-8.801,0-13.2,0
		c-3.2,0-6.4,0-9.601,0.399c-1.199,0-2,0-3.199-0.399c-1.2,0-2-0.8-2.4-1.601c-0.4-1.6,0.8-2.8,2.4-2.8c2.399,0,5.199,0,7.6-0.399
		c2,0,4.4,0,6.4-0.4c1.199,0,2.8-1.2,2.8-2.4c0-0.8,0-1.6,0-2.399c0-9.2,0-18.8,0.399-28c0-11.601,0.4-23.2,0.4-34.8
		c0-8.801,0.4-17.601,0.4-26c0-16.4,0-33.2,0.399-49.601c0-5.6,0-10.8,0-16.399c0-3.2-0.399-6.801-1.6-10c-0.8-2-2.4-3.2-4.8-3.2
		c-4,0-8-0.4-12-0.4c-0.801,0-1.2-0.399-2.4-0.399c0-1.2,0-2,0.4-3.2c0.399-0.8,0.8-1.601,2-1.601c0.8,0,1.199,0,2,0
		c3.6,0,7.199-0.399,10.8-0.8c2-0.399,4-0.399,6-0.8c1.6-0.4,3.2-0.8,5.2-1.2c1.199-0.399,2.399-0.8,3.6-1.2
		c1.6-0.399,3.2-0.8,4.8-1.6c1.2-0.4,2-0.4,2.8,0.4c0.4,2,0.4,4.399,0,6.399c0,0.4,0,1.2,0,1.601c0,8.399,0,16.8-0.399,25.199
		c0,8,0,16-0.4,24c0,9.601-0.399,19.2-0.8,28.801c0,6.399-0.4,12.8-0.4,19.199c0,7.2-0.399,14-0.399,21.2c0,5.2,0,10.4,0,15.2
		c0,0.4,0,0.8,0,0.8c0,0.8,0.8,1.2,1.6,1.2s1.601-0.4,2-0.8c4.4-2.4,8-5.2,12-8c3.2-2.8,6.8-5.2,10-8c2.8-2,5.2-4.4,7.601-6.8
		c2.399-2,4.399-4,6.8-6c2.399-2.4,5.2-4.4,7.6-7.2c1.601-1.601,3.2-3.2,4.8-4.8c2-2.4,4.4-4.801,5.601-7.601
		c1.2-2.399,1.6-5.2,1.2-8c0-1.2-0.801-2-2-2.399c-0.801,0-2-0.4-2.801-0.4c-3.199,0-6.399-0.4-9.6-0.4c-0.8,0-1.2-0.399-2-0.399
		c-1.2,0-2-2-1.6-3.2c0.399-0.8,0.8-1.2,1.199-1.2c1.601-0.399,3.601-0.399,5.2-0.399c2.4,0,4.4,0.399,6.8,0.8c2,0,4.4,0,6.4,0l0,0
		c2.8,0,5.6-0.4,8.4-0.4c1.6,0,3.199-0.399,4.399-0.399C476,648.4,478,648,480,649.2z"/>
	<path fill="#94A3B3" d="M805.6,648.8c1.2-0.399,2-0.8,3.2-0.8c1.601,0,3.2,0,5.2,0c3.2,0,6.8,0.4,10,0.4c3.6,0,7.2,0,11.2,0
		c2.399,0,4.8-0.801,6.8-0.801s4-0.399,6,0c2.4,0.4,3.2,2.4,2,4.801c-2,1.199-4,1.199-6,1.199c-0.8,0-1.6,0.4-2.4,1.2
		c-2,2-3.199,4.4-4,6.8c-2,4-3.6,8-5.199,12.4c-2.4,6.4-4.801,12.4-7.2,18.8c-1.2,3.2-2.4,6.8-3.601,10c-2,5.2-4,10.4-6,15.601
		c-2,4.8-3.6,9.6-5.6,14c-1.6,4-3.2,8-4.8,12c-1.601,4.399-3.601,8.399-5.2,12.8c-4.8,10.399-9.6,21.2-14.4,31.6
		C782,796.4,778,804,774.4,811.2c-2,3.6-3.601,7.2-5.601,11.2s-5.2,5.6-9.2,6c-3.6,0.399-7.199,1.199-10.8,2.399
		c-3.6,1.2-7.6,1.2-11.2,0.4c-0.8,0-1.6-0.4-2-0.8c-0.399-0.4-0.399-0.801-0.8-1.2c0.8-0.4,1.601-1.2,2-1.2c3.2-1.6,6.8-3.2,10-5.2
		c4-2.399,7.2-6,10-9.6c5.2-6.8,10.4-14,15.2-21.2c4.4-6.4,8.4-12.4,12-19.2c1.6-2.8,2.8-5.6,4-8.399c0.8-2,0.8-4,0-6
		c-1.2-3.2-2.4-6.4-3.6-9.2c-2-4.4-3.601-8.8-5.601-13.2c-0.8-2-1.6-4-2.399-6.4c-1.2-2.8-2.4-5.6-3.601-8.399
		C770.4,716,768.4,710.8,766.4,705.6c-0.801-2-2-4-2.801-6c-1.199-2.399-2-5.199-3.199-7.6c-2-4.4-3.601-8.8-5.601-13.2
		c-2-4.399-3.6-8.399-5.6-12.8c-1.2-2.8-2.4-6-4.8-8.4c-1.2-1.6-2.801-2.399-4.4-2.399s-2.8,0-4.4,0c-2,0-2.399-0.8-2.399-2.8
		s0.8-2.801,2.399-3.2c2.801,0,5.601,0,8.4,0c5.2,0,10.4,0.399,15.2,0.399c3.6,0,7.2-0.399,10.8-0.8c3.2,0,6,0,9.2,0
		c0.399,0,1.2,0,1.6,0.4c2.4,0.399,3.2,2,2.4,4.399c-0.4,0.801-0.8,1.2-1.601,1.601c-0.8,0-2,0.399-2.8,0.399c-1.6,0-3.6,0-5.2,0.4
		c-1.199,0-2,0.4-3.199,1.2c-1.601,0.8-2,2-2.4,3.6c-0.4,3.601,0.4,7.2,1.6,10.8c2,4,3.601,8.4,5.601,12.4c2.8,6,5.2,12,8,18.4
		c1.6,3.6,2.8,7.199,4.399,10.8c1.2,3.6,2.801,6.8,4,10.399c1.601,3.601,2.801,7.2,4.801,10.4c0.8,1.2,2,2.399,3.199,3.2
		c1.2,1.2,2.4,0.8,2.801-0.8c1.199-2,2-4.4,2.8-6.801c2-5.199,3.6-10,5.2-15.199c1.199-4,2.8-8.4,4-12.4c1.199-4,2.399-8,3.6-12
		s2.4-7.6,3.2-11.6c0.8-3.601,2-6.801,2.8-10.4c0.4-2,0.4-4,0-6.4c0-0.8-0.4-2-0.8-2.8c-0.4-2-2-3.2-4-3.2
		c-1.601-0.399-3.2-0.399-4.8-0.399c-2,0-4.4,0-6.4,0c-0.8,0-1.2,0-2,0s-1.2-0.8-1.2-1.601C804.8,651.2,805.2,650,805.6,648.8z"/>
	<path fill="#94A3B3" d="M582,743.6c0.8,2,0.8,2.4-0.8,3.601c-2.8,2.399-5.601,4.399-8.8,6c-2.801,1.6-6,3.2-9.2,4.399
		c-3.601,1.2-7.2,2.4-10.4,3.601c-2.399,0.8-4.399,1.2-6.8,1.2c-3.2,0.399-6.8,0.8-10,0.399c-1.2,0-2.4,0-3.6-0.399
		c-2-0.4-4-0.4-5.601-0.801c-5.2-1.199-10-2.8-14.399-5.199c-3.601-2-6.801-4.4-10-7.2c-2.4-2.4-4.4-4.8-6-7.601
		c-0.801-1.199-1.2-2-2-3.199c-0.801-2-1.601-3.601-2.4-5.601c-1.6-4-2.4-7.6-3.2-12c-0.399-2.8-0.8-5.2-0.8-8s-0.4-5.6-0.4-8.399
		c0-4.801,0.801-9.601,1.601-14c0.8-4.4,2-8.4,3.6-12.801c1.2-3.199,2.8-6,4.4-8.8c1.6-2.399,2.8-4.8,4.8-6.8c2-2.8,4.4-5.2,7.2-7.2
		c2.399-2,5.2-3.6,8-5.2c6.399-3.199,12.8-5.199,20-4.399c4,0.399,7.6,1.2,11.6,2.399c4,1.601,7.601,3.2,11.2,5.601c2.8,2,5.6,4,8,6
		c2,2,4,4,6,6c1.6,1.6,2.8,3.2,4,5.2s2.4,4,4,6.399c0.4,0.4,0.4,1.2,0.8,2c0.4,1.601-0.399,2.4-1.6,2.8c-3.2,1.2-6.4,1.601-9.2,2.4
		c-2.4,0.4-4.4,1.2-6.8,1.6c-2,0.4-3.601,0.801-5.601,1.2c-2.8,0.4-5.6,1.2-8.399,1.601c-2.4,0.399-4.8,0.8-7.2,1.199
		c-4,0.4-7.6,1.2-11.6,1.601c-2,0.399-4,0.399-6,0.8c-2.4,0.4-4.4,0.4-6.801,0.8c-4,0.4-8.399,0.8-12.399,1.2
		c-1.601,0-2.4,1.2-2.8,2.4c0,0.8,0,1.6,0,2.399c0,2.8,0,6,0,8.8c0.399,2.801,0.8,6,1.6,8.801c0.8,3.199,1.6,6,3.2,8.8
		c1.2,2,2.399,4.399,3.6,6.399c2.8,4.4,6.8,8,11.2,10.801c2.4,1.6,4.8,2.8,7.6,4c3.2,1.6,6.801,2.399,10.4,3.199
		c2.8,0.4,5.2,0.801,8,1.2c2,0,4,0.4,6,0.4c2.4,0,4.8,0,7.2-0.8c1.6-0.4,2.8-0.4,4.4-0.801c2-0.399,3.6-0.8,5.6-1.6
		c1.6-0.4,3.6-1.2,5.2-2c0.8-0.4,1.6-0.8,2.8-1.2C580.8,743.6,581.6,743.6,582,743.6z M510.8,687.6c4-0.399,7.601-0.399,11.2-0.8
		h0.4c1.6-0.399,3.199-0.8,4.8-0.8c2-0.4,4.399-0.4,6.399-0.8c2.801-0.4,5.2-1.2,7.601-1.601c1.6-0.399,2.8-0.399,4.399-0.8
		c1.2-0.399,2.4-0.8,3.601-0.8c3.6-0.8,7.2-1.2,11.2-2c1.6-0.4,2.399-1.2,2-2.8c-0.4-0.8-0.4-1.601-0.801-2.8
		c-2.8-6-6.8-10.801-11.6-15.2c-2.8-2.8-6-5.2-9.6-6.8c-5.2-2.4-10.4-2.4-15.2,0c-3.601,1.6-6.4,4.399-8.8,7.199
		c-2.4,3.2-4.801,6.801-6.4,10.801c-2,4.399-3.6,8.8-4.4,13.6c0,0.4,0,1.2,0,1.6c0,1.601,0.4,2,2,2
		C508.4,687.6,509.6,687.6,510.8,687.6z"/>
	<path fill="#94A3B3" d="M276,744c0,0.4,0.4,1.2,0.4,1.6c-1.6,2-3.6,3.2-5.2,4.4c-3.6,2.8-7.6,4.8-12,6.8c-4.8,2-9.2,4-14.4,4.8
		c-2.4,0.4-5.2,0.801-7.6,0.801c-2,0-3.6,0.399-5.6,0.399c-3.6-0.399-6.8-0.399-10.4-1.2c-3.2-0.399-6-1.6-8.8-2.8
		c-4.4-1.6-8-3.6-11.6-6.399c-3.6-2.801-6.8-6-9.2-10c-2.4-3.601-4.4-7.601-6-12c-0.4-1.601-0.8-3.2-1.2-5.2s-0.8-3.601-1.2-5.601
		c-1.2-6.399-1.2-12.8-0.8-19.6c0-2.4,0.4-4.4,0.8-6.8c0.4-2,0.8-4,1.2-6c0.8-2.4,1.2-5.2,2-7.601c1.2-4.399,3.2-8,5.6-12
		c2.4-4.399,5.6-8,8.8-11.6c1.2-1.2,2.4-2,3.6-3.2c2.4-1.6,4.8-3.6,7.2-4.8c3.6-2,7.2-3.2,11.2-4c2.4-0.4,4.8-0.4,7.2-0.4
		c4.4,0,8.8,1.2,13.2,2.801c2.4,1.199,4.8,2,7.2,3.199c2.8,1.601,6,3.601,8.4,5.601c1.6,1.6,3.2,2.8,5.2,4.399
		c2.8,2.4,4.8,4.801,7.2,7.601c2,2.399,3.6,4.8,4.8,7.6c0.4,0.4,0.4,1.2,0.8,1.601c0.8,2,0.4,2.8-1.6,3.199
		c-2.4,0.801-4.4,1.2-6.8,1.601c-3.2,0.8-6.4,1.2-9.6,2c-1.6,0.399-3.2,0.8-4.8,0.8c-1.6,0.4-3.6,0.8-5.2,1.2h-0.4
		c-3.2,0.399-6.8,1.2-10,1.6c-4,0.4-8,1.2-12,1.601c-2.8,0.399-5.6,0.8-8.4,0.8c-2,0.399-4,0.399-6,0.8c-2.8,0.4-5.6,0.4-8.4,0.8
		c-0.8,0-1.6,0.4-2.4,0.4c-1.6,0.399-2,0.8-2.4,2.399c0,1.2,0,2.801,0,4c0,4.4,0,8.801,0.8,13.2c0.4,2.4,1.2,5.2,2,7.601
		c0.8,3.199,2.4,6.399,4.4,9.199c2,2.801,4,5.601,6.8,8c1.2,1.2,2.8,2.4,4,3.601c2,1.2,3.6,2.399,5.6,3.2c2,1.199,4,2,6.4,2.8
		c2,0.8,4.4,1.6,6.4,2c2,0.399,4.4,0.8,6.4,1.2c3.6,0.399,7.2,0.8,10.8,0c1.2,0,2.4,0,4-0.4c4.8-0.4,9.6-2,14-3.6
		c1.6-0.801,3.2-1.2,4.4-2C274.8,743.6,274.8,743.6,276,744z M204,687.6L204,687.6c2.8,0,6-0.399,8.8-0.8c2-0.399,4.4-0.399,6.4-0.8
		c4-0.8,8-1.2,11.6-2c2-0.4,4-0.8,6-1.2c4-0.8,8.4-1.6,12.4-2c1.6-0.399,3.2-0.399,4.4-0.8c1.6-0.4,2-0.8,1.6-2.4
		c0-0.8-0.4-2-0.8-2.8c-1.2-2.8-2.8-5.2-4.4-7.6c-0.8-0.8-1.2-1.601-2-2.4c-2.4-3.2-5.6-6-8.8-8.8c-1.6-1.6-3.6-2.4-5.6-3.6
		c-2.4-1.2-4.8-2-7.2-2c-3.2,0-6,0.399-8.8,2c-0.4,0.399-0.8,0.399-1.2,0.8c-3.6,2.399-6.4,5.6-8.8,9.2c-1.6,2.399-2.8,4.8-4,7.199
		c-1.6,3.601-2.8,7.2-4,10.801c-0.4,1.6-0.8,3.199-1.2,4.8c-0.4,1.6,0.4,2.399,2,2.399C201.6,687.6,202.8,687.6,204,687.6z"/>
	<path fill="#94A3B3" d="M741.6,743.6c1.2,1.601,0.801,2-0.399,3.2c-2,2-4,3.2-6.4,4.8c-2.399,1.2-4.399,2.801-6.8,4
		c-1.6,0.801-3.6,1.601-5.2,2.4c-3.2,1.2-6,2.4-9.2,3.2c-3.199,0.8-6.8,1.6-10.399,1.6c-1.601,0-3.2,0.4-4.4,0.4
		c-5.2,0-10-0.4-15.2-2c-5.2-1.601-10-3.2-14.399-6.4c-6-4-10.801-9.2-14.4-15.6c-1.6-2.8-2.8-5.601-3.6-8.4
		c-1.601-4-2.4-8.399-2.801-12.8c-0.399-3.6-0.8-7.2-0.8-11.2c0-6.399,0.8-12.8,2-19.2c1.2-5.199,3.2-10.399,5.601-15.6
		c2.8-5.6,6-10.4,10.399-14.8c3.601-3.601,7.2-6.4,11.601-8.8c4-2,8.399-3.601,13.199-4c2.4-0.4,4.801-0.4,6.801,0
		c2.399,0.399,5.199,0.8,7.6,1.199c2.4,0.4,4.4,1.2,6.4,2.4c2.399,1.2,4.399,2.4,6.8,3.6c4.399,2.4,8.399,5.601,12,9.2
		c4.399,4,8,8.8,11.2,14.4c0.399,0.8,0.8,2,1.199,2.8c0.4,1.2-0.399,2.4-1.6,2.8c-4,0.8-7.6,1.601-11.6,2.8
		c-2.4,0.4-5.2,1.2-7.601,2c-3.199,0.801-6.399,1.2-9.199,2c-2,0.4-4.4,0.801-6.4,1.2c-3.2,0.4-6.8,0.8-10,1.2
		c-2.8,0.4-5.6,0.8-8.8,1.2C685.6,691.6,684,691.6,682,691.6c-3.2,0.4-6.8,0.4-10,0.801c-2,0-4,0.399-6,0.8c-0.8,0-2,0.8-2,2
		c0,0.8-0.4,2-0.4,2.8c0,3.6,0,6.8,0.4,10.4c0.4,2.8,0.8,5.6,1.6,8c1.2,5.199,3.2,9.6,6.4,14c2,2.8,4.4,5.6,7.2,8
		c2.8,2.399,6,4.399,9.6,6.399c3.2,1.601,6.8,2.8,10,4c2,0.4,4.4,0.8,6.8,1.2c1.601,0.4,3.2,0.4,4.8,0.8c4.4,0.4,8.4,0,12.801-0.399
		c4.8-0.4,8.8-2,13.199-3.601c1.601-0.399,3.2-1.6,4.801-2C740.4,744,741.2,743.6,741.6,743.6z M665.2,687.2c0.399,0,0.399,0,0.8,0
		c0.8,0,1.6,0,2.4,0c5.6,0,11.199-0.8,16.8-1.601c5.2-0.8,10-1.6,15.2-2.8c4-0.8,8.399-1.6,12.399-2.399c0.8,0,1.601,0,2.4-0.4
		c1.2,0,2-0.4,3.2-0.4c1.199,0,2.399-0.399,3.199-1.199c0.4-1.2,0.4-2.4,0-3.601c-0.8-1.6-1.6-3.2-2.399-4.8
		c-1.601-2.8-3.2-5.2-5.601-7.2c-2-2-4-4.399-6.399-6.399c-2-2-4.4-3.2-7.2-4.4c-3.6-1.6-7.2-2.4-11.2-1.6
		c-3.6,0.8-6.399,2.399-9.2,4.399c-2.399,2-4.399,4.8-6.399,7.601c-2.8,4.399-4.8,8.8-6.4,13.6c-0.8,2.8-1.6,5.6-2,8.8
		C664.4,686,664.4,686.8,665.2,687.2z"/>
	<path fill="#94A3B3" d="M583.6,754c0.4,0,0.801-0.4,1.2-0.4c0.8,0,1.601-0.399,2.4-0.399c3.2,0,6.399,0,9.6,0
		c2,0,3.601-0.4,5.601-0.8c2-0.4,3.199-1.601,3.199-4c0-2.4,0-5.2,0-7.601c0-47.6,0-95.2,0-142.8c0-3.2,0-6.4-0.399-9.6
		c0-1.601-0.4-3.601-1.2-5.2c-1.2-2.4-2.8-3.601-5.6-3.601c-2,0-3.601,0-5.601,0s-3.6,0-5.6-0.399c-0.8,0-1.601-0.4-2.4-0.4
		c0,0-0.399,0-0.399-0.399c-1.601-1.2-0.801-4.4,1.199-4.801c0.4,0,0.801,0,1.2,0c2.8-0.399,5.2-0.8,8-0.8
		c4-0.399,7.601-1.2,11.601-1.6c2-0.4,4.399-0.8,6.399-1.601c2-0.399,4.4-1.199,6.4-1.6c0.8-0.4,2,0.4,2.399,1.6
		c0.4,0.801,0.801,2,0.801,3.2c-0.4,3.2-0.4,6-0.801,9.2c-0.399,2.8-0.399,6-0.8,8.8c0,3.601,0,7.601,0,11.2c0,20.4,0,41.2,0,61.6
		c0,10.801-0.399,21.2-0.399,32c0,4.4,0,8.4-0.4,12.801c0,7.6-0.4,15.6-0.4,23.199c0,4.4,0.4,8.801,0.801,13.2c0,2,0.399,4.4,2,6
		c0.8,1.2,2,2,3.6,2c3.2,0,6.4,0,9.6,0.4c0.801,0,1.601,0,2.4,0.399c1.6,0.4,2.4,2.4,1.2,3.601c-0.4,0.399-0.4,0.399-0.8,0.8
		c-1.2,0-2.801,0.4-4.4,0.4c-3.6,0-6.8,0.399-10.4,0C617.2,758,610.4,758,604,758c-4.8,0-9.6,0.4-14.4,0.4c-1.6,0-3.199,0-5.199-0.4
		c-1.2,0-2-0.8-2-2C582.8,755.6,582.8,754.8,583.6,754z"/>
	<path fill="#94A3B3" d="M280.4,655.2c-0.8-2-0.4-4-0.4-6c0.8,0,1.6-0.4,2.4-0.4c4.8,0,10,0,14.8,0.4c2.8,0.399,5.2,0,8,0
		c1.2,0,2.8-0.4,4-0.8c1.6-0.4,3.2-0.801,4.8-0.801c1.2,0,2,0.801,2,2c0,2-0.4,4-0.4,6c0,1.601,0,3.2,0,4.801c0,0.399,0,0.8,0,0.8
		c0.4,1.2,0.801,1.6,1.601,1.2c1.2-0.4,2.399-0.801,3.2-1.601c1.6-1.2,3.199-2.399,5.199-3.2c2.4-1.6,5.2-3.199,7.601-4.8
		c3.6-2,7.6-3.2,11.6-3.6c1.601,0,3.601,0,5.2,0.399c2,0.801,4,1.2,5.6,2.4c2.801,1.6,5.2,4,6.4,7.2c0.4,1.2,0.4,2.399,0.4,3.6
		c-0.801,4-2.4,7.601-4.4,11.2c-0.8,1.2-1.2,1.6-2.8,0.8c-0.8-0.399-1.2-0.8-2-1.6c-2-2-3.601-4-6-5.2c-2-1.2-4-2-6.4-2.4
		c-2.399-0.399-5.2-0.399-7.6-0.399c-4,0.399-8,0.8-11.2,3.2c-3.2,2-5.2,4.8-6,8.399c-0.8,2.8-0.8,5.2-0.8,8c0,20,0,39.601,0,59.601
		c0,1.6,0,3.199,0.399,4.8c0,0.8,0.801,1.6,0.801,2.399c2,1.601,4,2.4,6.8,2.4c5.6,0,11.2,0.4,16.8,0.4c0.4,0,0.4,0,0.8,0
		c2.4,0,3.2,1.6,2.8,3.6c-0.399,0.8-0.399,1.2-1.6,1.2c-3.6,0.399-6.8,0.399-10.4,0c-4.8-0.4-9.6-0.4-14.399-0.8
		C313.6,758,309.6,758,306,758c-3.6,0-6.8,0.4-10.4,0.8c-3.6,0.4-7.2,0.4-10.8,0.4c-1.2,0-2.4-0.4-3.6-0.4
		c-1.2-1.2-1.2-2.399-0.8-3.6c0-0.8,0.4-1.2,1.2-1.2c0.8,0,1.2,0,2,0c2.4,0,5.2,0,7.6,0c1.6,0,3.6,0,5.2-0.4
		c1.6,0,2.4-1.199,2.8-2.8c0-0.399,0-0.8,0-1.2c0-26.399,0-52.8,0-78.8c0-2.399,0-5.2-0.4-7.6c0-1.601-0.4-3.2-1.2-4.4
		c-0.4-0.8-1.2-1.6-2-1.6c-1.2-0.4-2.4-0.8-4-0.8c-3.2,0-6.8,0-10-0.4C281.6,655.2,281.2,655.2,280.4,655.2z"/>
	<path fill="#94A3B3" d="M638,826.4c-0.4,0.399-0.8,0.8-1.2,0.8c-1.6,0-2.8,0-4.399,0c-0.4,0-0.801-0.4-1.2-0.8
		c-0.8-0.801-1.601-1.601-2-2.4c-1.2-2-2.4-4.4-3.601-6.4c0-0.399-0.399-0.8-0.399-0.8c-1.2-0.399-2-0.8-3.2,0c0,2.8,0,6,0,8.8
		c1.6,0.801,3.2-0.399,4.8,0.801c-0.399,0.399-0.399,0.8-0.8,0.8s-0.8,0-1.2,0c-2.8,0-5.6,0-8.8,0c-0.4,0-0.8,0-1.2,0
		c-0.399-0.8,0-1.2,0.4-1.2c0.399,0,0.8,0,1.2,0c0.399,0,1.199,0,1.6-0.4c0-0.8,0-1.199,0-1.6c0-5.2,0-10.4,0-16c0-2,0-3.2-2.8-3.2
		c-0.8,0-1.2,0-1.2-1.2c0.4,0,0.8,0,1.6,0c3.601,0,6.801,0,10.4,0c1.2,0,2,0,3.2,0.4c3.2,0.8,5.2,4.4,4.399,7.6
		C633.2,813.2,632,814.4,630.4,815.2c-0.4,0.399-1.2,0.399-1.601,0.8c0,0.4,0,0.4,0,0.8c1.601,2,2.8,4.4,4.4,6.4
		c1.2,1.6,2.399,2.8,4.399,2.8C637.2,826,637.6,826.4,638,826.4z M621.6,805.2c0,3.2,0,6,0,9.2c0,0.8,0.4,1.199,1.2,1.199
		c1.601,0,3.2,0.4,4.8-0.399c1.2-0.4,2-1.2,2.4-2.4c0.4-2.399,0-4.399-1.6-6C626.4,804.8,624,804.8,621.6,805.2z"/>
	<path fill="#94A3B3" d="M224,816.4c0.8,0.8,1.2,1.6,1.6,2c1.2,1.6,2,3.199,3.2,4.8c1.2,1.6,2.4,2.8,4.4,2.8c0,0,0.4,0,0.4,0.4
		c0.4,0.8,0,0.8-0.8,0.8c-1.6,0-2.8,0-4.4,0c-0.4,0-1.2-0.4-1.6-0.8c-1.2-1.601-2.4-3.2-3.2-4.801c-0.8-1.6-2-3.199-2.8-4.8
		c-1.2-0.399-2-0.8-3.2,0c0,2.8,0,5.601,0,8.8c1.6,0.801,3.2-0.399,4.8,1.2c-0.4,0.4-0.8,0.4-0.8,0.4c-0.4,0-0.8,0-1.2,0
		c-2.8,0-5.6,0-8.4,0c-0.4,0-0.8,0-1.2,0c-0.4-0.8,0-1.2,0.4-1.2c0.4,0,0.8,0,1.2,0s1.2,0,1.6-0.4c0-0.8,0-1.199,0-1.6
		c0-5.2,0-10.8,0-16c0-0.4,0-0.8,0-0.8c0-1.2-0.4-1.601-2-2c-0.8,0-1.2,0-2,0c0-0.4,0-0.8-0.4-0.8c0.4,0,0.8-0.4,0.8-0.4
		c2.4,0,4.8,0,7.2,0c1.6,0,2.8,0,4.4,0c0.8,0,2,0.4,2.8,0.4c3.2,1.199,4.8,4.8,3.6,8.399c-0.4,1.601-1.6,2.4-3.2,3.2
		C225.2,815.6,224.8,816,224,816.4z M217.6,805.2c0,0.8,0,1.2,0,1.6c0,2,0,4,0,6c0,0.4,0,0.8,0,1.2s0.4,0.8,1.2,0.8
		c1.6,0,3.2,0,4.8-0.399c0.8-0.4,1.6-0.801,2-1.601c0.8-2,0.4-5.2-1.2-6.8C222.4,804.8,220,804.8,217.6,805.2z"/>
	<path fill="#94A3B3" d="M59.2,801.6c0.4-0.8,1.2-0.8,2-0.8c3.2,0,6.4,0,9.6,0c0.4,0,0.8,0.4,1.6,0.4c-1.2,2-2.8,0.399-4,1.6
		c0,0.4,0,0.8,0,1.2c0,4.8,0,10,0,14.8c0,0.8,0,1.2,0,2c0.4,2.4,1.6,4,4,4.8c2.4,0.4,4.4,0.4,6.8,0c2.4-0.8,3.6-2.399,3.6-4.8
		c0-5.2-0.4-10.399-0.4-15.2c0-0.399,0-0.8-0.4-1.199c-0.4-1.601-0.8-1.601-2.4-1.601c-0.8,0-1.6,0-2.4-0.8c0.4,0,0.4-0.4,0.8-0.4
		s0.4,0,0.8,0c2.4,0,5.2,0,7.6,0c0.4,0,1.2,0,1.2,0.801c-0.8,1.199-2,0.399-2.8,0.8c-0.8,0.8-0.8,2-0.8,3.2c0,4.8,0,9.199-0.4,14
		c0,0.8,0,1.6,0,2c-0.4,2-1.2,3.6-2.8,4.399c-0.4,0.4-0.8,0.4-1.2,0.8c-4,1.2-7.6,1.2-11.6-0.399c-2.4-0.8-3.6-2.8-4-5.2
		c0-0.8,0-1.6,0-2c0-4.8,0-9.6,0-14.4c0-0.8,0-1.199,0-1.6C62.4,802,60.8,802.8,59.2,801.6z"/>
	<path fill="#94A3B3" d="M387.6,816c-0.399,1.2-0.399,2.8-0.8,4.4c-1.6,4.8-5.2,6.8-10,7.199c-1.6,0-2.8,0-4.399-0.399
		c-4.4-0.8-6.801-3.601-8-7.601c-0.801-2.8-0.801-5.199,0-8c1.199-4.399,4-7.199,8.399-8c1.601-0.399,3.2-0.399,5.2,0
		c5.2,0.4,8.4,4,9.2,8.801C387.2,813.6,387.2,814.4,387.6,816z M383.6,817.2c0-0.4,0-0.8,0-0.8c0-2.801-0.8-5.601-2.399-8.4
		c-2.8-4-8.8-4.4-11.601-0.8c-1.199,1.2-1.6,2.8-1.6,4.399c0,2.4,0,4.4,0,6.801c0.4,4,3.2,8,8.8,8.399c2.8,0,4.8-1.2,6-4
		C383.2,820.8,383.6,818.8,383.6,817.2z"/>
	<path fill="#94A3B3" d="M580.8,815.6c0.4-1.6,0.4-3.199,0.8-4.8c0.801-3.2,3.2-5.6,6.4-6.8s6.4-1.2,10,0c2.4,0.8,4,2.4,5.2,4.4
		c2,4.399,2.399,9.199,0,13.6c-2,3.6-5.2,5.2-9.2,5.6c-1.2,0-2.4,0-3.6-0.399c-5.601-0.8-8.4-4.4-9.2-10
		C580.8,816.8,581.2,816.4,580.8,815.6L580.8,815.6z M601.2,816.8c-0.4-2.8-0.8-5.2-2-7.6c-1.2-2.4-2.8-4-5.601-4.4
		c-4.399-0.8-7.6,1.2-8.399,6c-0.4,2.8-0.4,6,0,8.8c0.8,4.4,4.399,7.2,9.2,7.2c2.8,0,5.199-1.6,6-4.399
		C600.8,820.4,600.8,818.4,601.2,816.8z"/>
	<path fill="#94A3B3" d="M650.4,809.6c0,0.801-0.4,1.2-0.4,1.601c0,4.399,0,8.8,0,12.8c0,1.6,0.4,2,2,2c0.8,0,1.6,0,2.4,0.8
		c-0.4,0.4-0.4,0.4-0.801,0.4c-0.8,0-1.199,0-2,0c-1.6,0-3.199,0-5.199,0c-0.4,0-1.2,0-1.601-0.4c0.8-1.2,2.4-0.399,3.2-0.8
		c0-0.4,0.4-0.8,0.4-1.2c0-5.2,0-10.399,0-15.2c0-0.399,0-1.199-0.4-1.6c-0.4-1.6-1.2-2.4-2.8-2.4c-0.8,0-1.601,0-2-0.8
		c0.399-0.8,0.8-0.8,1.6-0.8c1.2,0,2.4,0,3.601,0c0.8,0,1.199,0.4,1.6,0.8c3.2,4,6.8,7.601,10,11.601c1.2,1.199,2,2.399,3.2,3.6
		c0.399,0.4,1.2,0.8,1.6,1.6c0-0.8,0.4-1.199,0.4-1.6c0-4.4-0.4-8.8-0.4-13.2c0-1.6-0.399-1.6-1.6-1.6c-0.8,0-1.2,0-2,0
		c-0.4,0-0.4-0.4-0.8-0.4c0-0.8,0.8-0.8,1.199-0.8c2.4,0,5.2,0,7.601,0c0.399,0,0.399,0.4,0.8,0.4c0,0.399-0.4,0.399-0.4,0.8
		c0,0-0.399,0-0.8,0C666.4,805.6,666.4,805.6,666.4,808c0,5.2,0,10-0.4,15.2c0,1.2,0,2,0,3.2c0,0.399,0,1.199,0,1.6
		c-0.8,0.4-1.2-0.4-1.6-0.8c-2-2.4-3.601-4.4-5.601-6.8c-2.399-3.2-5.2-6-7.6-8.801C651.6,810.8,650.8,810,650.4,809.6z"/>
	<path fill="#94A3B3" d="M123.2,803.6c-0.4,0.4-0.4,0.801-0.4,0.801c-0.4,0-0.4,0-0.8,0.399c-2,0.4-2,0.4-2,2.4
		c0,6.399,0,12.399-0.4,18.8c0,0.4,0,1.2,0,1.6c-1.2,0.4-1.2-0.399-1.6-0.8c-2.4-2.8-4.8-5.6-7.2-8.8c-2-2.4-4-4.4-6-6.8
		c-0.4-0.4-0.8-1.2-1.6-1.601c0,0.4-0.4,0.801-0.4,1.2c0,4.4,0,8.8,0,12.8c0,0.4,0,0.4,0,0.801c0.4,1.199,0.8,1.199,1.6,1.6
		c0.8,0,1.2,0,2,0c0.4,0,0.4,0.4,1.2,0.4c-0.4,0.399-0.8,0.399-0.8,0.399c-0.8,0-1.2,0-2,0c-1.6,0-3.2,0-5.2,0c-0.8,0-1.2,0-1.6-0.8
		c0.8-1.2,2.4-0.4,3.6-1.2c0-0.399,0-0.8,0-1.2c0-4.8,0-10,0-14.8c0-0.399,0-0.8,0-1.2c-0.4-2-1.2-2.8-3.2-3.199
		c-0.8,0-1.2,0-2-0.801c0.4-0.8,0.8-0.8,1.2-0.8c1.2,0,2.4,0,4,0c0.8,0,1.2,0.4,1.6,0.8c4,4.801,8.4,9.601,12.4,14.4
		c0.8,0.8,1.2,1.6,2.4,2.4c0-0.4,0.4-0.801,0.4-1.601c0-2.8,0-5.6,0-8.8c0-1.6,0-2.8-0.4-4.4c0-1.6-0.4-2-2-2c-0.8,0-1.6,0-2.4-0.8
		c0.4-0.399,0.4-0.399,0.8-0.399s1.2,0,1.6,0c2,0,4,0,6,0C122,803.6,122.4,803.6,123.2,803.6z"/>
	<path fill="#94A3B3" d="M198.4,818.8c-0.8-1.2-0.4-2.399-0.8-3.6c-2.8,0-5.2,0-8,0c-0.4,1.2-0.4,8.399,0,10.399
		c1.2,0.801,2.8,0.4,4.4,0.4s3.2,0,4.4-0.8c1.2-0.8,2.4-1.601,3.6-2.4c0,0.4,0.4,0.4,0.4,0.4c-0.4,1.6-1.2,2.8-1.6,4.399
		c-1.2,0-2,0-2.8,0c-4.8,0-9.6,0-14.4,0c-0.4,0-1.2,0.4-1.6-0.8c0.8-1.6,2.8,0,4-1.2c0-0.399,0-0.8,0-1.199c0-5.601,0-11.2,0-16.4
		c0-0.4,0-0.8,0-1.2c0-1.2-0.4-1.2-1.6-1.6c-0.8,0-1.6,0-2.4,0c-0.4,0-0.8,0-0.8-0.8c0.4-0.801,1.2-0.4,1.6-0.4c4,0,8,0,12,0
		c2,0,3.6,0,5.6-0.4c0.4,0,0.8,0,1.2,0c0.8,1.2-0.4,2.4,0,3.601c-0.4,0-0.4,0-0.4-0.4c-0.4-1.2-1.6-1.6-2.8-1.6
		c-2.4,0-4.8-0.4-7.2-0.4c-0.4,0-0.8,0-1.2,0.4c0,2.8,0,5.6,0,8c1.6,0.399,6.4,0.399,8,0c0-0.8,0.4-1.601,0.8-2.4
		c0.4,0.4,0.8,0.8,0.8,0.8c0,2,0,4.4,0,6.4C198.8,818,198.8,818.4,198.4,818.8z"/>
	<path fill="#94A3B3" d="M498.8,827.2c-0.399,0-1.2,0-1.6,0c-2.4,0-5.2,0-7.601,0c-0.399,0-0.8,0-1.199,0c-0.4,0-0.4-0.4-0.4-0.8
		c1.2-1.2,2.4,0,3.2-0.801c0.399-1.199-1.2-5.199-2.8-8c-1.2-0.399-7.2-0.399-9.2,0c-1.601,2-2.8,6.801-2,8.4
		c0.8,0,1.6,0.4,2.399,0.4c0.4,0.399,0,0.8-0.399,1.199c-0.4,0-0.8,0-1.2,0c-2,0-3.6,0-5.6,0c-0.4,0-1.2,0.4-1.601-0.399
		c0-0.8,0.4-0.8,1.2-0.8c1.6,0,2-0.801,2.8-2c2.8-6.801,6-13.2,9.2-20c0.4-0.4,0.8-1.2,1.2-1.601c0.399-0.399,0.8-0.399,1.2-0.8
		c0,0.4,0.399,0.4,0.399,0.8c0,1.601,0.8,2.8,1.2,4.4c2.4,5.6,4.8,11.2,7.2,16.399c0,0.4,0.399,0.801,0.399,1.2
		c0.4,1.2,1.2,1.601,2.4,1.601C498.4,826,498.8,826,498.8,827.2z M487.6,815.6c-0.8-2.8-2-5.199-2.8-7.6c0-0.4-0.399-0.8-1.2-1.6
		c-1.199,2.8-2.399,4.8-3.6,7.199c0,0.4,0,0.801,0,0.801c0.8,0.8,1.2,0.8,2.4,0.8c1.199,0,2.399,0,4,0
		C486.8,816,487.2,816,487.6,815.6z"/>
	<path fill="#94A3B3" d="M698.8,826.8c0.4-0.8,0.8-0.8,1.601-0.8c1.199,0,1.6-0.8,2-1.6c3.199-6.801,6-13.601,9.199-20.4
		c0.4-0.8,0.801-1.2,1.2-1.6c0.4-0.4,0.8-0.4,1.2-0.801l0.4,0.4c0.399,2.8,2,5.6,3.199,8c1.601,4.4,3.601,8.8,5.601,13.2
		c0,0.399,0.399,0.8,0.399,0.8c0.4,1.2,1.2,2,2.4,1.6c0.8,0,0.8,0,0.8,1.2c-0.399,0-0.8,0-0.8,0c-2.8,0-5.6,0-8.4,0
		c-0.8,0-0.8,0-1.199-0.8c0.8-0.8,2.399,0,3.6-0.8c-0.8-2.8-2-5.2-3.2-8c-3.2,0-6.399,0-9.6,0c-1.2,2-2,4.399-2.4,6.8
		c0,1.2,0,1.6,1.601,2c0.399,0,0.8,0,1.199,0.4c0.4,0.8,0,0.8-0.399,1.199c-0.4,0-0.4,0-0.8,0c-2,0-4,0-6,0
		C699.6,827.2,698.8,827.2,698.8,826.8z M711.6,806.8c-1.6,2-4,7.2-3.6,8.8c1.2,0.4,6,0.4,7.2,0c0-0.399,0-0.8-0.4-1.199
		C714,812,713.2,809.2,711.6,806.8z"/>
	<path fill="#94A3B3" d="M462.8,822.8c0.4,0.4,0.4,0.4,0.8,0.8c-0.399,0.4-0.8,1.2-1.6,1.601c-5.2,3.2-10.4,3.6-16,0.8
		c-3.2-1.6-4.8-4.8-5.2-8c-0.399-3.2,0-6,0.8-8.8c1.601-4.4,5.2-8,10.4-8.4c3.2-0.399,6.4,0,9.2,1.2c0.399,0,0.399,0.4,0.8,0.4
		c0.4,1.199,0,2.399-0.8,3.6c-0.4-0.4-0.8-0.8-0.8-1.2c-1.601-2-3.601-2.8-6-2.8c-0.4,0-0.801,0-1.2,0c-5.2,0.4-8.4,3.6-8.8,9.2
		c-0.4,2.8,0,5.2,0.8,7.6c1.6,4,5.2,6,9.2,6C457.6,825.2,460,824.4,462.8,822.8z"/>
	<path fill="#94A3B3" d="M552.4,804.4c0-0.801,0.399-0.801,0.8-0.801c0.399,0,0.8,0,1.2,0c4.399,0,8.399,0,12.8,0
		c1.2,0,2.399,0,3.6-0.399c1.2,0,1.601,0.399,1.601,1.6c0,0.8-0.4,1.601-0.4,2.4c0,0,0,0-0.4,0.399L571.2,807.2
		c-0.4-1.2-1.2-1.601-2.4-1.601c-2.4,0-5.2,0-7.6,0c-0.4,0-0.8,0.4-1.2,0.4c0,2.4,0,5.2,0,8c2.8,0,5.2,0.4,8,0
		c0-0.8,0.4-1.6,0.4-2.8c0.399,0.399,0.8,0.8,0.8,0.8c0,0.4,0,0.8,0,0.8c0,1.601,0,3.2,0.399,4.8c0,0.4,0.4,1.2-0.399,1.601
		c-1.2-0.8-0.4-2.4-1.2-3.2c-1.2-0.4-6-0.4-8,0c0,0.4,0,0.8,0,0.8c0,2.4,0,5.2,0,7.601c0,2,0.4,2,2,2.399c1.2,0,2,0,3.2,0
		c0.399,0.8,0,1.2-0.4,1.2c-0.8,0-1.6,0-2,0c-2.8,0-5.6,0-8.8,0c-0.4,0-1.2,0-1.6,0c0-0.4,0-0.8,0-1.2c1.199,0,2.8-0.399,4-0.399
		c0-0.4,0-0.801,0.399-1.2c0-6,0-11.601,0-17.601c0-1.6-0.399-2-2-2C554,804.8,553.2,805.2,552.4,804.4z"/>
	<path fill="#94A3B3" d="M330.8,804.8c0-0.399,0-0.8,0-0.8l0.4-0.4c0.8,0,1.6,0,2.399,0c2,0,3.601,0,5.601,0
		c0.399,0,1.2-0.399,1.6,0.4c0,0.8-0.399,0.8-1.2,0.8c-1.199,0-2,0.4-2.399,1.2c-2,2.8-4,5.6-6,8.4c-0.4,0.399-0.8,1.6-0.8,2
		c0,2.399,0,5.199,0,7.6c0,0.4,0,0.8,0,1.2c1.199,1.2,3.199,0,4.399,1.2c0,0.8-0.8,0.8-1.2,0.8c-0.8,0-1.6,0-2.399,0
		c-2.4,0-4.4,0-6.8,0c-0.801,0-1.601,0.399-2-0.4c0-0.8,0.8-0.8,1.199-0.8c0.4,0,0.801,0,1.2,0c0.8,0,1.2-0.4,1.2-1.6
		c0-2.801,0-5.2,0-8c0-0.4-0.4-1.2-0.8-1.601c-2-2.8-4-5.6-6-8.399c-0.4-0.801-1.2-1.601-2.4-1.601c-0.399,0-0.399,0-0.8-0.399
		c-0.4-0.4,0-0.801,0.4-0.801c0.399,0,1.199,0,1.6,0c2,0,4,0,6.4,0c0.8,0,1.199,0,2,0c0,1.601-1.601,0.801-2,1.601
		c-0.4,0.399-0.4,1.2,0,1.6c1.199,2,2.8,4,4,6c0,0.4,0.399,0.4,1.199,0.8c0.4-0.399,0.4-0.8,0.801-1.199
		c1.199-1.601,2-2.801,3.199-4.4c0-0.4,0.4-0.4,0.4-0.8c0.8-1.601,0.4-2.4-1.6-2.4C332,804.8,331.6,804.8,330.8,804.8z"/>
	<path fill="#94A3B3" d="M404.4,805.2c0,2.8,0,5.2,0,7.6c0.399,0,0.8,0.4,1.199,0.4c2,0,3.601,0,5.601,0c1.6,0,1.6,0,1.6-1.601
		c0-0.399,0-0.8,0-0.8c0.8,0,0.8,0.4,0.8,0.8c0,2,0.4,4,0.4,6.4c0,0.4-0.4,0.4-0.4,0.8c-1.199-0.8-0.399-2.399-1.199-3.6
		c-2.4-0.4-5.2,0-8,0c0,0.399,0,0.8,0,1.2c0,2.399,0,5.199,0,7.6c0,1.6,0.399,2,2,2c1.199,0,2,0,3.199,0.4
		c0.4,0.8,0.4,1.199-0.399,1.199c-0.4,0-1.2,0-1.601,0c-3.199,0-6.399,0-9.6,0c-0.4,0-0.8,0-1.2,0c-0.399,0-0.399,0-0.399-1.199
		c1.199,0,2.8-0.4,4-0.4c0-0.4,0-0.8,0-1.2c0-5.6,0-11.6,0-17.2c0-1.6-0.4-2-2-2c-0.801,0-1.2,0-2,0c0,0-0.4,0-0.4-0.399
		c-0.4-0.4,0-0.8,0.4-0.8c0.399,0,0.8,0,1.199,0c4.4,0,8.801,0,12.801,0c1.199,0,2.399,0,3.6-0.4c1.2,0,1.6,0.4,1.6,1.2
		s-0.399,1.6-0.399,2.8c-0.4,0-0.4,0-0.4,0c-0.399-1.6-1.6-2-3.2-2c-2.399,0-4.8,0-7.199,0C405.2,805.2,404.8,805.2,404.4,805.2z"/>
	<path fill="#94A3B3" d="M308.8,803.6c-0.399,1.2-0.399,2.4-0.399,3.601c-1.2-1.2-2.4-1.601-3.601-1.601c-1.6,0-3.6,0-5.2,0
		c-0.4,0-0.4,0-0.8,0c-0.4,1.2-0.4,18,0,20c0.4,0,1.2,0.4,2,0.4c0.8,0,1.2,0,2,0c0.4,0,0.8,0.4,0.4,1.2c-0.4,0-0.8,0-1.2,0
		c-3.2,0-6.4,0-9.6,0c-0.4,0-1.2,0-1.6-0.8c1.2-1.2,3.2,0,4.4-1.2c0-6.4,0-13.2,0-19.601c-0.4,0-0.8-0.399-1.2-0.399
		c-2,0-3.6,0-5.6,0c-1.2,0-2.4,0.399-3.2,1.6h-0.4c-0.4-0.8-0.4-1.6,0.4-4C292.8,804,300.8,804,308.8,803.6z"/>
	<path fill="#94A3B3" d="M150.4,804c0.4-0.4,0.8-0.4,0.8-0.4c2.8,0,6,0,8.8,0c0.4,0,0.4,0.4,0.8,0.4c-0.4,0.4-0.4,0.8-0.4,0.8
		c-0.4,0-0.8,0-1.2,0.4c-1.2,0-1.6,0.399-1.6,2c0,0.399,0.4,1.2,0.4,1.6c1.6,4,3.2,8,5.2,11.601c0.4,0.399,0.4,0.8,0.8,1.6
		c0.4-0.8,0.8-1.2,0.8-1.6c1.6-4.4,3.2-8.4,4.4-12.801c0.4-1.6,0-2-1.6-2.399c-0.4,0-0.8,0-1.2,0s-0.8-0.4-0.4-0.8
		c1.2-0.4,2.8,0,4,0s2.4,0,4,0c0,0.399,0,0.8,0,1.199c-1.6,0-2,1.2-2.4,2.4c-2.8,6.4-5.2,12.4-8,18.8c0,0.4-0.4,0.8-0.8,1.2
		c-0.8,0-1.2-0.4-1.2-1.2c-1.6-4-3.6-8.399-5.2-12.399c-0.8-2.4-2-4.4-3.2-6.801c-0.4-1.199-0.8-2-2.4-2
		C150.8,804.8,150.8,804.4,150.4,804z"/>
	<path fill="#94A3B3" d="M512.8,805.2c0,0.8,0,1.2,0,1.6c0,5.2,0,10.8,0,16c0,2.8,0,3.2,3.2,3.2c0.8,0,2,0,2.8,0c2,0,4-0.4,5.601-2
		c0.399,0,0.399-0.4,0.8-0.4c0,0,0,0,0.399,0v0.4c0,0.4-0.399,0.4-0.399,0.8c-0.8,2.4-0.4,2.4-3.601,2.4c-4.8,0-9.6,0-14.399,0
		c-0.4,0-0.8,0-1.2,0c-0.4-0.8,0-0.8,0.4-1.2c0.399,0,1.199,0,1.6,0s1.2-0.4,1.6-0.4c0.4-2,0.4-19.199,0-20.399
		c-1.199-0.8-2.8,0-4-1.2c0.4-0.4,0.801-0.4,0.801-0.4c0.399,0,0.8,0,1.199,0c2.801,0,6,0,8.801,0c0.399,0,1.199,0,1.6,0
		c0,0.4,0,0.801,0,1.2C516,804.8,514.4,804.8,512.8,805.2z"/>
	<path fill="#94A3B3" d="M241.2,820.8l0.4,0.4c0.4,0.399,0.4,0.8,0.8,1.2c2.4,3.6,5.2,4.399,9.6,3.199c2.4-0.8,3.2-3.199,2.4-5.199
		c-0.4-0.4-0.8-0.801-1.2-1.2c-0.8-0.4-1.6-0.8-2.4-1.2c-0.8-0.4-2-0.8-2.8-1.2c-1.2-0.399-2-0.8-3.2-1.6
		c-2.4-1.601-3.2-4.8-1.6-7.601c0.4-0.8,1.2-1.199,1.6-2c2.4-1.6,5.2-2.399,8.4-2c1.6,0.4,2.4,2,1.6,3.601c-0.4,0-0.4-0.4-0.8-0.4
		c-1.6-1.6-5.2-2-7.2-0.8c-1.6,0.8-2.4,3.2-1.6,4.8c0.4,0.4,0.8,1.2,1.6,1.2c1.2,0.8,2.8,1.2,4.4,1.6c0.8,0.4,1.6,0.801,2.8,1.2
		c3.2,2,3.6,6.8,1.6,9.601c-0.8,1.199-2,1.6-3.2,2c-2.4,0.8-5.2,0.8-7.6,0c-0.4,0-0.8,0-1.2-0.4c-0.8-0.4-2-0.4-2.4-1.2
		C240.8,824,240,822.4,241.2,820.8C240.8,820.8,241.2,820.8,241.2,820.8z"/>
	<path fill="#94A3B3" d="M135.6,805.2c-1.2,0-2.8-0.4-4-0.4c-0.4-0.8,0-1.2,0.8-1.2c0.8,0,1.2,0,2,0c2.4,0,5.2,0,7.6,0
		c0.8,0,1.6,0,2,0.4c-1.2,1.2-2.8,0.4-4,1.2c0,0.399,0,0.8,0,1.2c0,6,0,12,0,18.399c0,0.4,0,0.8,0,1.2c1.6,0.8,3.2-0.4,4.4,0.8
		c-0.4,0.4-0.4,0.4-0.8,0.8c-0.4,0-0.8,0-1.2,0c-2.8,0-5.6,0-8.4,0c-0.4,0-1.2,0-1.6-0.399c0.4-0.8,1.2-0.8,1.6-0.8c0.8,0,1.2,0,2,0
		C136,824.4,136,806.4,135.6,805.2z"/>
	<path fill="#94A3B3" d="M683.2,805.2c-1.2-0.4-2.8,0-4.4-0.8c0.4-0.4,0.8-0.4,1.2-0.4c3.6,0,7.2,0,10.4,0c0.399,0,0.399,0,0.8,0.4
		c-0.4,0.8-1.2,0.8-2,0.8s-1.601,0-2,0c-0.4,1.6-0.4,19.6,0,20.8c1.2,0.4,2.8-0.4,4.399,0.8c-0.399,0.8-1.199,0.8-2,0.8
		c-2,0-3.6,0-5.6,0c-1.2,0-2.4,0-3.2,0s-0.8,0-1.2-0.8c1.2-0.8,2.4-0.399,3.601-0.399C683.6,824.4,683.6,806.4,683.2,805.2z"/>
	<path fill="#94A3B3" d="M264.8,804.4c0.4-0.4,0.4-0.4,0.8-0.801c0.4,0,0.8,0,1.2,0c3.2,0,6,0,9.2,0c0.4,0,1.2,0,1.6,0.801
		c-1.2,1.199-2.8,0-4,0.8c-0.4,1.2-0.4,18.8,0,20.399c1.2,0.801,3.2-0.399,4.4,0.801c-0.4,0.399-0.8,0.399-0.8,0.8
		c-0.4,0-1.2,0-1.6,0c-2.8,0-5.2,0-8,0c-0.4,0-1.2,0-1.6,0c-0.4-0.8,0-0.8,0.4-1.2c0.4,0,0.8,0,1.2,0s1.2,0,1.6,0
		c0.4-1.6,0-2.8,0-4.4c0-1.199,0-2.8,0-4c0-1.199,0-2.8,0-4c0-1.199,0-2.8,0-4c0-1.199,0.4-2.8-0.4-4
		C267.6,804.4,266,805.6,264.8,804.4z"/>
	<path fill="#94A3B3" d="M540.4,825.6c1.6,0.801,3.199-0.399,4.399,0.801c-0.399,0.8-1.2,0.8-1.6,0.8c-1.601,0-3.2,0-4.8,0
		c-1.2,0-2.801,0-4,0c-0.4,0-0.801,0-1.601,0c0.4-0.4,0.4-0.8,0.8-0.8c0.4,0,1.2,0,1.601-0.4c0.399,0,1.2,0,1.6,0
		c0.4-1.6,0.4-19.6,0-20.8c-1.2-0.8-2.8,0-4-0.8c0.4-0.801,1.2-0.801,1.601-0.801c2.399,0,4.8,0,6.8,0c0.8,0,1.6,0,2.399,0
		c0.4,0,0.4,0,1.2,0.801c-1.2,1.199-2.8,0.399-4,0.8c0,0.399,0,0.8,0,1.2c0,6,0,12.399,0,18.399
		C540.4,824.8,540.4,825.2,540.4,825.6z"/>
</g>
</svg>
