<?xml version="1.0" encoding="utf-8"?>
<!-- Generator: Adobe Illustrator 16.0.4, SVG Export Plug-In . SVG Version: 6.00 Build 0)  -->
<!DOCTYPE svg PUBLIC "-//W3C//DTD SVG 1.1//EN" "http://www.w3.org/Graphics/SVG/1.1/DTD/svg11.dtd">
<svg version="1.1" id="Layer_1" xmlns="http://www.w3.org/2000/svg" xmlns:xlink="http://www.w3.org/1999/xlink" x="0px" y="0px"
	 width="15.999px" height="16px" viewBox="0 0 15.999 16" enable-background="new 0 0 15.999 16" xml:space="preserve">
<symbol  id="Icon:_Calendar__x28_Active_x29_" viewBox="-8 -8 15.999 16">
	<path fill="#FFFFFF" d="M-8,8V-8H7.999V8H-8z M-3.757-6.933h-3.162v3.161h3.162V-6.933z M-3.757-3.386h-3.162v3.161h3.162V-3.386z
		 M-3.757,0.16h-3.162v3.16h3.162V0.16z M-0.199-6.933h-3.162v3.161h3.162V-6.933z M-0.199-3.386h-3.162v3.161h3.162V-3.386z
		 M-0.199,0.16h-3.162v3.16h3.162V0.16z M3.358-6.933H0.197v3.161h3.161V-6.933z M3.358-3.386H0.197v3.161h3.161V-3.386z
		 M3.358,0.16H0.197v3.16h3.161V0.16z M6.917-6.933H3.755v3.161h3.162V-6.933L6.917-6.933z M6.917-3.386H3.755v3.161h3.162V-3.386
		L6.917-3.386z M6.917,0.16H3.755v3.16h3.162V0.16L6.917,0.16z"/>
</symbol>
<use xlink:href="#Icon:_Calendar__x28_Active_x29_"  width="15.999" height="16" x="-8" y="-8" transform="matrix(1 0 0 -1 8 8)" overflow="visible"/>
</svg>
