<?xml version="1.0" encoding="utf-8"?>
<!-- Generator: Adobe Illustrator 16.0.4, SVG Export Plug-In . SVG Version: 6.00 Build 0)  -->
<!DOCTYPE svg PUBLIC "-//W3C//DTD SVG 1.1//EN" "http://www.w3.org/Graphics/SVG/1.1/DTD/svg11.dtd">
<svg version="1.1" id="Layer_1" xmlns="http://www.w3.org/2000/svg" xmlns:xlink="http://www.w3.org/1999/xlink" x="0px" y="0px"
	 width="14.564px" height="13.895px" viewBox="0 0 14.564 13.895" enable-background="new 0 0 14.564 13.895" xml:space="preserve">
<path fill="#FFFFFF" d="M12.479,1.987C11.084,0.663,9.342,0,7.25,0C5.156,0,3.426,0.663,2.055,1.987C0.686,3.313,0,4.987,0,7.01
	c0,1.973,0.682,3.611,2.041,4.922c1.359,1.309,3.061,1.963,5.102,1.963c2.139,0,3.91-0.654,5.314-1.963
	c1.406-1.311,2.107-2.962,2.107-4.96C14.564,4.975,13.869,3.313,12.479,1.987z M11.051,10.627c-1.01,0.99-2.271,1.484-3.781,1.484
	c-1.506,0-2.758-0.485-3.76-1.455c-1-0.969-1.502-2.184-1.502-3.646c0-1.505,0.604-2.743,1.602-3.713
	c0.797-0.773,1.369-1.236,3.018-1.394v0.01V7.27l3.66,2.016l0.377-0.791L7.451,6.823V1.845c1.646,0.021,2.627,0.509,3.615,1.466
	c1.01,0.98,1.508,2.188,1.508,3.622C12.574,8.406,12.062,9.639,11.051,10.627z"/>
</svg>
