<?xml version="1.0" encoding="utf-8"?>
<!-- Generator: Adobe Illustrator 16.0.4, SVG Export Plug-In . SVG Version: 6.00 Build 0)  -->
<!DOCTYPE svg PUBLIC "-//W3C//DTD SVG 1.1//EN" "http://www.w3.org/Graphics/SVG/1.1/DTD/svg11.dtd">
<svg version="1.1" id="Layer_2" xmlns="http://www.w3.org/2000/svg" xmlns:xlink="http://www.w3.org/1999/xlink" x="0px" y="0px"
	 width="29.999px" height="30px" viewBox="291 381 29.999 30" enable-background="new 291 381 29.999 30" xml:space="preserve">
<g>
	<path fill="#FFFFFF" d="M320.999,409.605c0,0.771-0.624,1.396-1.396,1.396h-27.209c-0.771,0-1.395-0.625-1.395-1.396v-27.209
		c0-0.771,0.624-1.396,1.395-1.396h27.21c0.771,0,1.395,0.625,1.395,1.396V409.605L320.999,409.605z"/>
	<path fill="#3B559F" d="M319.605,381h-27.209c-0.771,0-1.396,0.625-1.396,1.396v27.21c0,0.77,0.625,1.395,1.396,1.395h14.646
		v-11.662h-3.997v-4.494h3.997v-3.441c0,0-0.212-5.982,5.604-5.855c1.607,0.035,2.837,0.066,3.771,0.095v4.205h-2.33
		c0,0-2.392-0.203-2.392,1.981v3.019h4.467l-0.558,4.491h-3.909V411h7.907c0.771,0,1.396-0.625,1.396-1.396l0,0v-27.209
		C321,381.625,320.376,381,319.605,381z"/>
</g>
</svg>
