<?xml version="1.0" encoding="utf-8"?>
<!-- Generator: Adobe Illustrator 16.0.4, SVG Export Plug-In . SVG Version: 6.00 Build 0)  -->
<!DOCTYPE svg PUBLIC "-//W3C//DTD SVG 1.1//EN" "http://www.w3.org/Graphics/SVG/1.1/DTD/svg11.dtd">
<svg version="1.1" id="Layer_1" xmlns="http://www.w3.org/2000/svg" xmlns:xlink="http://www.w3.org/1999/xlink" x="0px" y="0px"
	 width="150px" height="49.059px" viewBox="0 0 150 49.059" enable-background="new 0 0 150 49.059" xml:space="preserve">
<symbol  id="Banner:_Google_Play" viewBox="-75 -24.529 150 49.059">
	<path fill="#231F20" d="M75-17.9c0-3.66-2.967-6.629-6.629-6.629h-136.74c-3.662,0-6.631,2.969-6.631,6.629V17.9
		c0,3.66,2.969,6.629,6.631,6.629h136.74c3.662,0,6.629-2.969,6.629-6.629V-17.9z"/>
	<g id="PLAY_3_">
		<defs>
			<path id="SVGID_1_" d="M-42.492,2.936l-6.764,3.902c0,0-12.322,7.115-13.047,7.533s-1.445,0.164-1.445-0.709
				c0-1.457,0-15.189,0-15.189s0-14.842,0-15.496c0-0.656,0.516-0.938,1.145-0.576c0.629,0.365,13.348,7.707,13.348,7.707
				l6.762,3.904c0,0,5.74,3.312,6.502,3.752c0.764,0.441,0.689,1.045,0.045,1.391C-36.59-0.498-42.492,2.936-42.492,2.936z"/>
		</defs>
		<clipPath id="SVGID_2_">
			<use xlink:href="#SVGID_1_"  overflow="visible"/>
		</clipPath>
		<linearGradient id="SVGID_3_" gradientUnits="userSpaceOnUse" x1="-55.3711" y1="15.084" x2="-55.3711" y2="-18.1387">
			<stop  offset="0" style="stop-color:#2B7EAE"/>
			<stop  offset="0.1789" style="stop-color:#3E8EB1"/>
			<stop  offset="0.7321" style="stop-color:#75BCB9"/>
			<stop  offset="1" style="stop-color:#8BCEBC"/>
		</linearGradient>
		<polygon clip-path="url(#SVGID_2_)" fill="url(#SVGID_3_)" points="-63.748,15.084 -63.748,-1.527 -63.748,-18.139 
			-46.994,-1.527 		"/>
		<linearGradient id="SVGID_4_" gradientUnits="userSpaceOnUse" x1="-63.748" y1="6.8389" x2="-42.4922" y2="6.8389">
			<stop  offset="0" style="stop-color:#56BFAC"/>
			<stop  offset="1" style="stop-color:#DEE79D"/>
		</linearGradient>
		<polygon clip-path="url(#SVGID_2_)" fill="url(#SVGID_4_)" points="-42.492,2.936 -49.256,6.838 -63.748,15.205 -63.748,15.084 
			-46.994,-1.527 		"/>
		<linearGradient id="SVGID_5_" gradientUnits="userSpaceOnUse" x1="-53.1211" y1="-1.5273" x2="-53.1211" y2="-18.2598">
			<stop  offset="0" style="stop-color:#E84243"/>
			<stop  offset="0.1789" style="stop-color:#D54454"/>
			<stop  offset="0.7321" style="stop-color:#9E4B86"/>
			<stop  offset="1" style="stop-color:#884D9A"/>
		</linearGradient>
		<polygon clip-path="url(#SVGID_2_)" fill="url(#SVGID_5_)" points="-63.748,-18.139 -63.748,-18.26 -49.256,-9.893 
			-42.494,-5.988 -46.994,-1.527 		"/>
		<linearGradient id="SVGID_6_" gradientUnits="userSpaceOnUse" x1="-40.8789" y1="2.9355" x2="-40.8789" y2="-5.9883">
			<stop  offset="0" style="stop-color:#F2877C"/>
			<stop  offset="0.6121" style="stop-color:#F9B07B"/>
			<stop  offset="1" style="stop-color:#FCC67A"/>
		</linearGradient>
		<polygon clip-path="url(#SVGID_2_)" fill="url(#SVGID_6_)" points="-42.492,2.936 -46.994,-1.527 -42.494,-5.988 -34.764,-1.527 
					"/>
	</g>
	<g>
		<path fill="#F9F9F9" d="M41.736-8.021c-0.629,0-1.203,0.117-1.723,0.348c-0.521,0.232-0.957,0.59-1.309,1.072h-0.107
			c0.072-0.564,0.107-1.1,0.107-1.605v-3.975H37.24V1.816h1.191l0.201-1.322h0.072c0.375,0.529,0.812,0.912,1.312,1.146
			s1.072,0.352,1.719,0.352c1.281,0,2.271-0.438,2.969-1.312c0.697-0.877,1.045-2.105,1.045-3.686c0-1.586-0.355-2.82-1.062-3.699
			C43.979-7.582,42.994-8.021,41.736-8.021z M41.525,0.75c-0.988,0-1.701-0.273-2.143-0.82s-0.666-1.416-0.678-2.609v-0.326
			c0-1.357,0.225-2.328,0.678-2.914c0.453-0.584,1.18-0.877,2.178-0.877c0.834,0,1.488,0.338,1.963,1.014
			c0.473,0.676,0.709,1.607,0.709,2.795c0,1.205-0.236,2.129-0.709,2.773C43.049,0.428,42.383,0.75,41.525,0.75z"/>
		<path fill="#F9F9F9" d="M49.137-7.844h-1.463V5.871h1.463V-7.844z"/>
		<path fill="#F9F9F9" d="M57.551-7.844L57.26-6.471h-0.07c-0.482-0.605-0.961-1.016-1.441-1.229
			c-0.479-0.215-1.078-0.322-1.793-0.322c-0.959,0-1.709,0.246-2.254,0.74s-0.814,1.195-0.814,2.107
			c0,1.951,1.561,2.975,4.682,3.066l1.641,0.053v0.6c0,0.76-0.164,1.318-0.492,1.68c-0.324,0.363-0.846,0.543-1.562,0.543
			c-0.807,0-1.719-0.248-2.734-0.74l-0.449,1.119c0.477,0.26,0.998,0.461,1.564,0.609c0.566,0.146,1.135,0.219,1.707,0.219
			c1.15,0,2.006-0.254,2.561-0.766s0.834-1.332,0.834-2.461v-6.592H57.551z M54.246-6.814c0.91,0,1.625,0.25,2.146,0.75
			c0.52,0.5,0.781,1.199,0.781,2.098v0.873l-1.465-0.062c-1.164-0.041-2.002-0.221-2.518-0.541c-0.514-0.32-0.771-0.818-0.771-1.494
			c0-0.529,0.16-0.932,0.482-1.209C53.223-6.676,53.668-6.814,54.246-6.814z"/>
		<path fill="#F9F9F9" d="M59.486,1.816h1.568l2.115-5.51c0.465-1.258,0.754-2.166,0.865-2.725h0.07
			c0.076,0.301,0.236,0.812,0.48,1.539s1.043,2.957,2.395,6.695h1.568L64.396-9.186c-0.412-1.088-0.893-1.857-1.441-2.314
			c-0.551-0.455-1.225-0.682-2.023-0.682c-0.447,0-0.887,0.049-1.322,0.148v1.174c0.322-0.072,0.686-0.107,1.084-0.107
			c1.006,0,1.721,0.564,2.152,1.693l0.537,1.375L59.486,1.816z"/>
	</g>
	<g>
		<path fill="#F9F9F9" d="M14.625,0.918c0.463-0.383,1.434-1.191,1.434-2.729c0-1.494-0.85-2.203-1.697-2.869
			c-0.264-0.262-0.566-0.545-0.566-0.99s0.303-0.688,0.525-0.869l0.729-0.564c0.889-0.748,1.697-1.436,1.697-2.83
			c0-1.9-1.84-3.82-5.314-3.82c-2.932,0-4.346,1.395-4.346,2.893c0,0.727,0.361,1.756,1.557,2.465
			c1.252,0.768,2.949,0.867,3.859,0.93c-0.283,0.363-0.605,0.746-0.605,1.371c0,0.344,0.1,0.547,0.201,0.791
			c-0.223-0.021-0.445-0.041-0.646-0.041c-2.143,0-3.355,1.598-3.355,3.172c0,0.93,0.424,1.961,1.293,2.709
			c1.152,0.949,2.525,1.111,3.619,1.111h4.162l-1.293-0.729H14.625z M13.189-8.055c-0.162,0.021-0.264,0.021-0.465,0.021
			c-0.182,0-1.273-0.043-2.123-0.324c-0.445-0.16-1.738-0.646-1.738-2.082c0-1.434,1.395-2.467,3.559-2.467
			c1.939,0,2.971,0.932,2.971,2.184C15.393-9.689,14.725-9.146,13.189-8.055z M13.775-4.213c0.465,0.465,0.504,1.109,0.504,1.475
			c0,1.455-0.867,3.717-2.545,3.717c-0.525,0-1.092-0.262-1.416-0.666C9.977-0.113,9.873-0.658,9.873-1.184
			c0-1.354,0.789-3.598,2.527-3.598C12.906-4.781,13.451-4.537,13.775-4.213z"/>
		<path fill="#F9F9F9" d="M1.9-7.73c-3.209,0-4.924,2.502-4.924,4.762c0,2.645,2.158,4.902,5.227,4.902
			c2.967,0,4.822-2.32,4.822-4.762C7.025-5.207,5.191-7.73,1.9-7.73z M4.422-6.098c0.486,0.646,0.607,1.453,0.607,2.24
			c0,1.775-0.848,5.166-3.352,5.166c-0.666,0-1.332-0.262-1.814-0.688c-0.787-0.705-0.93-1.592-0.93-2.461
			c0-1.998,0.99-5.285,3.432-5.285C3.15-7.125,3.959-6.742,4.422-6.098z"/>
		<path fill="#F9F9F9" d="M-9.037-7.73c-3.211,0-4.924,2.502-4.924,4.762c0,2.645,2.16,4.902,5.227,4.902
			c2.965,0,4.822-2.32,4.822-4.762C-3.912-5.207-5.748-7.73-9.037-7.73z M-6.516-6.098c0.484,0.646,0.607,1.453,0.607,2.24
			c0,1.775-0.85,5.166-3.35,5.166c-0.668,0-1.334-0.262-1.818-0.688c-0.787-0.705-0.928-1.592-0.928-2.461
			c0-1.998,0.988-5.285,3.434-5.285C-7.785-7.125-6.979-6.742-6.516-6.098z"/>
		<path fill="#F9F9F9" d="M-15.504-7.416l-2.9-0.668c-1.178-0.184-2.232-0.344-3.348-0.344c-5.6,0-7.729,4.117-7.729,7.342
			c0,3.936,3.021,7.586,8.197,7.586c1.096,0,2.15-0.16,3.102-0.426c1.523-0.426,2.232-0.953,2.678-1.258l-1.684-1.602l-0.709-0.162
			l0.506,0.811c-0.689,0.67-1.947,1.906-4.34,1.906c-3.205,0-5.621-2.434-5.621-5.984c0-3.812,2.76-7.402,7.182-7.402
			c1.299,0,1.967,0.264,2.576,0.508v3.264l-3.062-0.162l1.621,0.875h4.303l-0.527-0.508c-0.143-0.123-0.162-0.164-0.203-0.324
			c-0.021-0.184-0.041-0.771-0.041-0.975V-7.416z"/>
		<path fill="#F9F9F9" d="M21.037-6.83c-0.67,0.061-0.811,0.182-0.811,0.973v0.225V5.625c0.004,0.045,0.008,0.088,0.012,0.131
			c0.082,0.709,0.285,0.83,0.914,1.197H18.25l-1.523-0.73h1.553v-0.01v0.008V-5.633v-0.67c0-0.406-0.082-0.467-0.549-1.076h3.59
			l0.752,0.447C21.729-6.891,21.383-6.871,21.037-6.83z"/>
		<path fill="#F9F9F9" d="M29.291-7.016c-0.221-0.123-0.441-0.264-0.662-0.365c-0.666-0.301-1.352-0.383-1.957-0.383
			c-0.643,0-1.65,0.043-2.68,0.787c-1.428,1.008-2.055,2.74-2.055,4.25c0,3.123,2.541,4.654,4.615,4.654
			c0.725,0,1.471-0.182,2.076-0.564c1.006-0.664,1.268-1.531,1.408-1.994l-4.734-1.914l-1.551-0.121
			c0.504-2.559,2.236-4.049,4.15-4.049c1.027,0,1.773,0.363,2.457,0.705L29.291-7.016z M27.398-1.014
			c0.383,0.141,0.584,0.262,0.584,0.543c0,0.807-0.906,1.734-1.994,1.734c-0.809,0-2.318-0.625-2.318-2.801
			c0-0.342,0.041-0.705,0.061-1.068L27.398-1.014z"/>
		<g>
			<path fill="#F9F9F9" d="M31.238,1.789v-1.33h-0.162v1.33h-0.441v0.139h1.043V1.789H31.238z"/>
			<path fill="#F9F9F9" d="M33.051,0.459v1.342h-0.008l-0.41-1.342h-0.125l-0.414,1.342h-0.006V0.459h-0.146v1.469h0.252
				l0.373-1.188h0.004l0.369,1.188h0.254V0.459H33.051z"/>
		</g>
	</g>
	<g>
		<path fill="#F9F9F9" d="M-25.451,10.449h-1.01c0,0.141-0.094,0.533-0.287,1.18h-1.453c-0.197-0.637-0.297-1.029-0.297-1.18h-0.949
			c0,0.082,0.246,0.756,0.736,2.018s0.736,1.957,0.736,2.084h1.189c0-0.119,0.223-0.805,0.666-2.055
			C-25.674,11.246-25.451,10.562-25.451,10.449z M-26.906,12.23c-0.359,1.084-0.541,1.668-0.541,1.758h-0.049
			c0-0.082-0.186-0.668-0.559-1.758H-26.906z"/>
		<path fill="#F9F9F9" d="M-21.389,10.449h-0.779c0,0.088-0.287,0.543-0.865,1.363c-0.605,0.869-0.951,1.463-1.035,1.781h-0.051
			c0.053-0.461,0.08-0.875,0.08-1.246c0-0.52,0.014-1.152,0.043-1.898h-0.775c0.033,0.652,0.049,1.367,0.049,2.146
			c0,0.766-0.016,1.418-0.049,1.955h0.936c0-0.111,0.26-0.555,0.779-1.332c0.553-0.826,0.871-1.385,0.951-1.68h0.049
			c-0.051,0.469-0.076,0.889-0.076,1.262c0,0.568-0.014,1.152-0.043,1.75h0.787c-0.031-0.52-0.045-1.172-0.045-1.955
			C-21.434,11.807-21.42,11.09-21.389,10.449z"/>
		<path fill="#F9F9F9" d="M-16.824,12.643c0-0.596-0.191-1.117-0.572-1.562c-0.383-0.445-0.918-0.668-1.607-0.668
			c-0.311,0-0.74,0.014-1.285,0.037c0.027,0.635,0.041,1.35,0.041,2.146c0,0.764-0.014,1.416-0.041,1.955h0.551
			c0.09,0,0.227,0.004,0.404,0.01c0.18,0.008,0.295,0.01,0.35,0.01c0.758,0,1.307-0.189,1.648-0.566
			C-16.994,13.625-16.824,13.172-16.824,12.643z M-17.684,12.508c0,0.402-0.119,0.742-0.354,1.018
			c-0.234,0.277-0.594,0.416-1.078,0.416c-0.088,0-0.213-0.01-0.369-0.029c0.02-0.42,0.031-0.859,0.031-1.316
			c0-0.502,0.01-1,0.029-1.494c0.139-0.027,0.275-0.041,0.41-0.041c0.451,0,0.787,0.141,1.004,0.422
			C-17.793,11.762-17.684,12.104-17.684,12.508z"/>
		<path fill="#F9F9F9" d="M-12.613,10.449h-0.934c-0.242,0.744-0.43,1.203-0.561,1.377c-0.129,0.176-0.34,0.262-0.629,0.262
			c-0.123,0-0.238-0.002-0.35-0.004c0-0.537,0.01-1.082,0.027-1.635h-0.875c0.027,0.635,0.041,1.35,0.041,2.146
			c0,0.764-0.014,1.416-0.041,1.955h0.545c0.064,0,0.195,0.004,0.396,0.01c0.199,0.008,0.385,0.01,0.555,0.01
			c0.965,0,1.447-0.33,1.447-0.988c0-0.523-0.277-0.887-0.826-1.094v-0.047c0.213-0.061,0.398-0.225,0.557-0.496
			C-13.1,11.674-12.885,11.174-12.613,10.449z M-13.795,13.348c0,0.418-0.268,0.627-0.805,0.627c-0.199,0-0.373-0.014-0.523-0.043
			c0.023-0.326,0.033-0.75,0.033-1.273c0.117-0.004,0.213-0.006,0.293-0.006C-14.129,12.652-13.795,12.885-13.795,13.348z"/>
		<path fill="#F9F9F9" d="M-8.098,12.576c0-0.645-0.197-1.18-0.592-1.602c-0.395-0.426-0.883-0.637-1.467-0.637
			c-0.553,0-1.018,0.193-1.391,0.584c-0.375,0.389-0.561,0.885-0.561,1.484c0,0.645,0.197,1.18,0.592,1.604s0.883,0.637,1.465,0.637
			c0.555,0,1.02-0.195,1.395-0.584C-8.283,13.676-8.098,13.18-8.098,12.576z M-8.967,12.484c0,0.439-0.111,0.795-0.336,1.068
			s-0.502,0.41-0.834,0.41c-0.307,0-0.566-0.139-0.781-0.412c-0.213-0.275-0.32-0.623-0.32-1.043c0-0.438,0.111-0.793,0.338-1.066
			s0.502-0.412,0.83-0.412c0.307,0,0.568,0.139,0.783,0.414C-9.074,11.719-8.967,12.066-8.967,12.484z"/>
		<path fill="#F9F9F9" d="M-6.316,10.449h-0.893c0.029,0.652,0.043,1.367,0.043,2.146c0,0.766-0.014,1.418-0.043,1.955h0.893
			c-0.027-0.527-0.041-1.18-0.041-1.955C-6.357,11.803-6.344,11.088-6.316,10.449z"/>
		<path fill="#F9F9F9" d="M-1.75,12.643c0-0.596-0.191-1.117-0.574-1.562c-0.381-0.445-0.918-0.668-1.605-0.668
			c-0.311,0-0.74,0.014-1.287,0.037c0.027,0.635,0.041,1.35,0.041,2.146c0,0.764-0.014,1.416-0.041,1.955h0.553
			c0.092,0,0.225,0.004,0.404,0.01c0.178,0.008,0.295,0.01,0.35,0.01c0.756,0,1.307-0.189,1.648-0.566
			C-1.92,13.625-1.75,13.172-1.75,12.643z M-2.609,12.508c0,0.402-0.117,0.742-0.354,1.018c-0.236,0.277-0.596,0.416-1.078,0.416
			c-0.09,0-0.213-0.01-0.371-0.029c0.021-0.42,0.031-0.859,0.031-1.316c0-0.502,0.012-1,0.031-1.494
			c0.137-0.027,0.273-0.041,0.41-0.041c0.451,0,0.785,0.141,1.004,0.422C-2.719,11.762-2.609,12.104-2.609,12.508z"/>
		<path fill="#F9F9F9" d="M4.309,10.449h-1.01c0,0.141-0.096,0.533-0.287,1.18H1.557c-0.197-0.637-0.295-1.029-0.295-1.18H0.314
			c0,0.082,0.244,0.756,0.734,2.018s0.734,1.957,0.734,2.084h1.191c0-0.119,0.223-0.805,0.666-2.055
			C4.086,11.246,4.309,10.562,4.309,10.449z M2.852,12.23c-0.359,1.084-0.539,1.668-0.539,1.758H2.264
			c0-0.082-0.186-0.668-0.559-1.758H2.852z"/>
		<path fill="#F9F9F9" d="M7.982,13.479c0-0.504-0.188-0.873-0.559-1.113c-0.373-0.24-0.83-0.359-1.373-0.359
			c-0.098,0-0.168,0.002-0.211,0.008c0-0.396,0.012-0.916,0.035-1.564H4.99c0.027,0.607,0.041,1.322,0.041,2.146
			c0,0.756-0.014,1.408-0.041,1.955h0.547c0.078,0,0.229,0.004,0.449,0.01c0.219,0.008,0.41,0.01,0.572,0.01
			c0.4,0,0.736-0.09,1.012-0.27C7.846,14.119,7.982,13.844,7.982,13.479z M7.17,13.305c0,0.447-0.299,0.674-0.895,0.674
			c-0.15,0-0.307-0.016-0.473-0.047c0.023-0.398,0.035-0.848,0.035-1.35c0.053-0.004,0.113-0.006,0.184-0.006
			C6.787,12.576,7.17,12.818,7.17,13.305z"/>
		<path fill="#F9F9F9" d="M11.762,13.479c0-0.504-0.186-0.873-0.559-1.113s-0.832-0.359-1.373-0.359c-0.1,0-0.17,0.002-0.213,0.008
			c0-0.396,0.014-0.916,0.035-1.564H8.768c0.027,0.607,0.041,1.322,0.041,2.146c0,0.756-0.014,1.408-0.041,1.955h0.549
			c0.076,0,0.227,0.004,0.447,0.01c0.221,0.008,0.412,0.01,0.572,0.01c0.4,0,0.738-0.09,1.012-0.27
			C11.623,14.119,11.762,13.844,11.762,13.479z M10.947,13.305c0,0.447-0.297,0.674-0.895,0.674c-0.148,0-0.307-0.016-0.473-0.047
			c0.023-0.398,0.035-0.848,0.035-1.35c0.053-0.004,0.113-0.006,0.184-0.006C10.564,12.576,10.947,12.818,10.947,13.305z"/>
		<path fill="#F9F9F9" d="M17.939,12.576c0-0.645-0.197-1.18-0.594-1.602c-0.395-0.426-0.883-0.637-1.465-0.637
			c-0.555,0-1.018,0.193-1.393,0.584c-0.373,0.389-0.561,0.885-0.561,1.484c0,0.645,0.197,1.18,0.592,1.604s0.885,0.637,1.465,0.637
			c0.555,0,1.02-0.195,1.393-0.584C17.752,13.676,17.939,13.18,17.939,12.576z M17.068,12.484c0,0.439-0.113,0.795-0.338,1.068
			s-0.502,0.41-0.83,0.41c-0.309,0-0.568-0.139-0.781-0.412c-0.215-0.275-0.322-0.623-0.322-1.043c0-0.438,0.113-0.793,0.34-1.066
			c0.225-0.273,0.502-0.412,0.828-0.412c0.307,0,0.568,0.139,0.783,0.414C16.961,11.719,17.068,12.066,17.068,12.484z"/>
		<path fill="#F9F9F9" d="M22.209,10.449H21.43c0,0.088-0.287,0.543-0.865,1.363c-0.605,0.869-0.949,1.463-1.033,1.781H19.48
			c0.053-0.461,0.078-0.875,0.078-1.246c0-0.52,0.016-1.152,0.045-1.898h-0.775c0.031,0.652,0.049,1.367,0.049,2.146
			c0,0.766-0.018,1.418-0.049,1.955h0.936c0-0.111,0.26-0.555,0.779-1.332c0.551-0.826,0.867-1.385,0.951-1.68h0.047
			c-0.051,0.469-0.076,0.889-0.076,1.262c0,0.568-0.014,1.152-0.045,1.75h0.789c-0.029-0.52-0.045-1.172-0.045-1.955
			C22.164,11.807,22.18,11.09,22.209,10.449z"/>
	</g>
</symbol>
<use xlink:href="#Banner:_Google_Play"  width="150" height="49.059" x="-75" y="-24.529" transform="matrix(1 0 0 -1 75 24.5293)" overflow="visible"/>
</svg>
