<?xml version="1.0" encoding="utf-8"?>
<!-- Generator: Adobe Illustrator 16.0.0, SVG Export Plug-In . SVG Version: 6.00 Build 0)  -->
<!DOCTYPE svg PUBLIC "-//W3C//DTD SVG 1.1//EN" "http://www.w3.org/Graphics/SVG/1.1/DTD/svg11.dtd">
<svg version="1.1" id="Layer_1" xmlns="http://www.w3.org/2000/svg" xmlns:xlink="http://www.w3.org/1999/xlink" x="0px" y="0px"
	 width="225px" height="175px" viewBox="0 0 225 175" enable-background="new 0 0 225 175" xml:space="preserve">
<g>
	<path fill="#94A3B3" d="M42.333,60.452h27.319v3.847H42.333V60.452z M102.93,60.452h1.014l0.959,0.153l0.958,0.181l0.972,0.208
		l0.972,0.319l0.889,0.361l0.889,0.431l0.903,0.472l0.819,0.57l0.792,0.569l0.611,0.583H73.569v-3.847H102.93z M120.402,60.452
		h22.209l1.361,3.847h-23.57V60.452L120.402,60.452z M160.667,60.452h22v3.847h-23.362L160.667,60.452z M42.333,67.938h27.319v3.792
		H42.333V67.938z M50.139,75.355h11.68v3.875h-11.68V75.355z M50.139,82.799h11.68v3.875h-11.68V82.799z M115.473,67.938
		l0.207,0.361l0.432,0.903l0.361,1l0.457,1.528H73.569v-3.792H115.473z M81.375,75.355h11.666v3.875H81.375V75.355z M117.291,75.355
		l-0.027,0.611l-0.111,1L117,77.938l-0.236,0.959l-0.111,0.333h-11.861v-3.875H117.291z M115,82.799l-0.361,0.542l-0.611,0.792
		l-0.639,0.75l-0.681,0.708l-0.75,0.653l-0.653,0.43h-29.93v-3.875H115z M120.402,67.938h24.82l1.36,3.792h-26.181V67.938
		L120.402,67.938z M182.667,67.938v3.792h-25.944l1.319-3.792H182.667L182.667,67.938z M128.223,75.355h19.582l1.362,3.875h-20.944
		V75.355z M175.057,75.355v3.875h-20.959l1.332-3.875H175.057z M141.152,86.674h21.015l1.181-3.444v3.444h11.709v-3.875h-22.195
		l-1.223,3.445l-1.222-3.445h-22.194v3.875h11.707v-3.472L141.152,86.674z M42.333,112.646h27.319v3.902H42.333V112.646z
		 M42.333,105.146h27.319v3.903H42.333V105.146z M50.139,90.286h11.68v3.833h-11.68V90.286z M50.139,97.73h11.68v3.875h-11.68V97.73
		z M111.305,90.286l0.653,0.472l0.75,0.639l0.681,0.723l0.639,0.75l0.611,0.792L115,94.119H81.375v-3.833H111.305z M81.375,97.73
		h11.666v3.875H81.375V97.73z M116.652,97.73l0.111,0.375L117,99.062l0.152,0.959l0.111,1l0.027,0.584h-12.5V97.73H116.652z
		 M116.93,105.146l-0.166,0.791l-0.291,0.932l-0.361,0.931l-0.432,0.902l-0.207,0.348H73.569v-3.903H116.93z M112.708,112.646
		l-0.75,0.625l-0.792,0.611l-0.819,0.541l-0.889,0.473l-0.903,0.431l-0.889,0.348l-0.972,0.333l-0.972,0.208l-0.931,0.181l-1,0.111
		l-1,0.041H73.569v-3.902H112.708z M128.223,90.286h11.707v3.833h-11.707V90.286z M159.555,94.119h-15.873l-1.32-3.833h18.541
		L159.555,94.119z M163.348,90.286h11.709v3.833h-11.709V90.286z M128.223,97.73h11.707v3.875h-11.707V97.73z M158.375,97.73
		l-1.333,3.875h-10.806l-1.334-3.875H158.375z M163.348,97.73h11.709v3.875h-11.709V97.73z M120.402,105.146h19.527v3.903h-19.527
		V105.146L120.402,105.146z M155.82,105.146l-1.32,3.903h-5.723l-1.334-3.903H155.82z M163.348,105.146h19.319v3.903h-19.319
		V105.146z M120.402,112.646h19.527v3.902h-19.527V112.646L120.402,112.646z M163.348,112.646h19.319v3.902h-19.319V112.646z
		 M151.917,116.549l1.333-3.902h-3.223l1.32,3.902H151.917z"/>
</g>
</svg>
