<?xml version="1.0" encoding="utf-8"?>
<!-- Generator: Adobe Illustrator 16.0.4, SVG Export Plug-In . SVG Version: 6.00 Build 0)  -->
<!DOCTYPE svg PUBLIC "-//W3C//DTD SVG 1.1//EN" "http://www.w3.org/Graphics/SVG/1.1/DTD/svg11.dtd">
<svg version="1.1" id="Layer_1" xmlns="http://www.w3.org/2000/svg" xmlns:xlink="http://www.w3.org/1999/xlink" x="0px" y="0px"
	 width="21px" height="12.933px" viewBox="39.5 62.734 21 12.933" enable-background="new 39.5 62.734 21 12.933"
	 xml:space="preserve">
<g id="Captions">
</g>
<g id="Your_Icon">
	<path fill="#7A8EA3" d="M59.055,65.899H46.312c-0.058-1.758-1.5-3.165-3.271-3.165h-0.264c-1.81,0-3.275,1.463-3.276,3.273v2.671
		c0.001,1.808,1.466,3.272,3.276,3.273h0.264c1.771-0.001,3.213-1.407,3.271-3.167h7.616v2.645h1.44v-1.923h1.442v1.923h1.443
		v-2.646h0.801c0.799,0,1.445-0.646,1.445-1.44C60.5,66.548,59.854,65.899,59.055,65.899z M44.311,68.679
		c-0.002,0.7-0.571,1.269-1.271,1.271h-0.264c-0.702-0.003-1.271-0.571-1.271-1.271v-2.671c0-0.703,0.569-1.269,1.271-1.271h0.264
		c0.7,0.003,1.269,0.568,1.271,1.271V68.679z"/>
</g>
</svg>
