<?xml version="1.0" encoding="utf-8"?>
<!-- Generator: Adobe Illustrator 16.0.4, SVG Export Plug-In . SVG Version: 6.00 Build 0)  -->
<!DOCTYPE svg PUBLIC "-//W3C//DTD SVG 1.1//EN" "http://www.w3.org/Graphics/SVG/1.1/DTD/svg11.dtd">
<svg version="1.1" id="Layer_1" xmlns="http://www.w3.org/2000/svg" xmlns:xlink="http://www.w3.org/1999/xlink" x="0px" y="0px"
	 width="14.852px" height="8.405px" viewBox="0 0 14.852 8.405" enable-background="new 0 0 14.852 8.405" xml:space="preserve">
<g id="Your_Icon_3_">
	<path fill="#B3B3B3" d="M14.848,2.452C14.844,1.096,13.73-0.005,12.365,0L6.406,0.015C5.07,0.019,3.992,1.075,3.945,2.389
		L2.469,2.393C1.104,2.396-0.004,3.502,0,4.858l0.002,1.094c0.004,1.355,1.117,2.457,2.482,2.453l5.961-0.015
		c1.332-0.004,2.412-1.062,2.459-2.376l1.479-0.003c1.365-0.003,2.473-1.109,2.469-2.466L14.848,2.452z M8.439,7.115L2.48,7.13
		C1.824,7.131,1.287,6.602,1.285,5.948L1.283,4.855C1.281,4.202,1.814,3.67,2.473,3.668l1.477-0.003
		C4.002,4.979,5.088,6.03,6.422,6.026l3.199-0.008C9.576,6.629,9.066,7.113,8.439,7.115z M5.232,3.66l3.199-0.007
		c0.627-0.003,1.137,0.479,1.186,1.09L6.418,4.752C5.791,4.752,5.281,4.271,5.232,3.66z M12.379,4.735L10.9,4.74
		c-0.053-1.314-1.137-2.366-2.473-2.363L5.229,2.386c0.047-0.61,0.555-1.095,1.18-1.097l5.961-0.015
		c0.658-0.003,1.193,0.528,1.195,1.182l0.002,1.093C13.568,4.201,13.035,4.734,12.379,4.735z"/>
</g>
</svg>
