<?xml version="1.0" encoding="utf-8"?>
<!-- Generator: Adobe Illustrator 16.0.4, SVG Export Plug-In . SVG Version: 6.00 Build 0)  -->
<!DOCTYPE svg PUBLIC "-//W3C//DTD SVG 1.1//EN" "http://www.w3.org/Graphics/SVG/1.1/DTD/svg11.dtd">
<svg version="1.1" id="Layer_1" xmlns="http://www.w3.org/2000/svg" xmlns:xlink="http://www.w3.org/1999/xlink" x="0px" y="0px"
	 width="35px" height="35px" viewBox="0 0 35 35" enable-background="new 0 0 35 35" xml:space="preserve">
<g>
	<path fill="#FFFFFF" d="M4.408,14.035h5.138v16.526H4.408V14.035z M6.977,5.819c1.643,0,2.978,1.335,2.978,2.978
		c0,1.645-1.335,2.979-2.978,2.979C5.331,11.776,4,10.441,4,8.797C4,7.154,5.331,5.819,6.977,5.819"/>
	<path fill="#FFFFFF" d="M12.768,14.035h4.927v2.258h0.07c0.686-1.299,2.361-2.67,4.861-2.67c5.197,0,6.156,3.424,6.156,7.875v9.063
		h-5.131v-8.036c0-1.918-0.037-4.383-2.668-4.383c-2.674,0-3.082,2.088-3.082,4.244v8.175h-5.134V14.035z"/>
</g>
<rect x="34" fill="#FFFFFF" width="1" height="35"/>
</svg>
