<?xml version="1.0" encoding="utf-8"?>
<!-- Generator: Adobe Illustrator 16.0.4, SVG Export Plug-In . SVG Version: 6.00 Build 0)  -->
<!DOCTYPE svg PUBLIC "-//W3C//DTD SVG 1.1//EN" "http://www.w3.org/Graphics/SVG/1.1/DTD/svg11.dtd">
<svg version="1.1" id="Layer_1" xmlns="http://www.w3.org/2000/svg" xmlns:xlink="http://www.w3.org/1999/xlink" x="0px" y="0px"
	 width="10.096px" height="15.981px" viewBox="0 0 10.096 15.981" enable-background="new 0 0 10.096 15.981" xml:space="preserve">
<path fill="#B3B3B3" d="M7.619,10.261c-2.105,3.016-2.408,5.562-2.408,5.562c-0.047,0.21-0.234,0.21-0.281,0
	c0,0-0.396-2.547-2.453-5.562C0.77,7.877,0,6.941,0,5.002C0,2.221,2.219,0,5.023,0c2.781,0,5.072,2.221,5.072,5.002
	C10.096,6.941,8.602,8.836,7.619,10.261z M7.01,5.096c0-1.075-0.84-1.917-1.939-1.917c-1.027,0-1.893,0.842-1.893,1.917
	S4.043,7.082,5.07,7.082C6.17,7.082,7.01,6.171,7.01,5.096z"/>
</svg>
