<?xml version="1.0" encoding="utf-8"?>
<!-- Generator: Adobe Illustrator 16.0.4, SVG Export Plug-In . SVG Version: 6.00 Build 0)  -->
<!DOCTYPE svg PUBLIC "-//W3C//DTD SVG 1.1//EN" "http://www.w3.org/Graphics/SVG/1.1/DTD/svg11.dtd">
<svg version="1.1" id="Layer_1" xmlns="http://www.w3.org/2000/svg" xmlns:xlink="http://www.w3.org/1999/xlink" x="0px" y="0px"
	 width="18px" height="18px" viewBox="8.875 8.875 18 18" enable-background="new 8.875 8.875 18 18" xml:space="preserve">
<circle fill="#3FB34F" cx="17.825" cy="17.875" r="9"/>
<path fill="#FFFFFF" d="M19.595,19.857c-1.448,2.075-1.657,3.829-1.657,3.829c-0.032,0.145-0.161,0.145-0.193,0
	c0,0-0.273-1.754-1.689-3.829c-1.174-1.641-1.705-2.284-1.705-3.619c0-1.915,1.528-3.443,3.459-3.443
	c1.914,0,3.491,1.528,3.491,3.443C21.3,17.573,20.27,18.876,19.595,19.857z M19.176,16.303c0-0.74-0.579-1.319-1.335-1.319
	c-0.708,0-1.304,0.579-1.304,1.319c0,0.739,0.596,1.367,1.304,1.367C18.597,17.67,19.176,17.042,19.176,16.303z"/>
</svg>
