<?xml version="1.0" encoding="utf-8"?>
<!-- Generator: Adobe Illustrator 16.0.4, SVG Export Plug-In . SVG Version: 6.00 Build 0)  -->
<!DOCTYPE svg PUBLIC "-//W3C//DTD SVG 1.1//EN" "http://www.w3.org/Graphics/SVG/1.1/DTD/svg11.dtd">
<svg version="1.1" id="Layer_1" xmlns="http://www.w3.org/2000/svg" xmlns:xlink="http://www.w3.org/1999/xlink" x="0px" y="0px"
	 width="110.958px" height="17px" viewBox="-0.426 -0.13 110.958 17" enable-background="new -0.426 -0.13 110.958 17"
	 xml:space="preserve">
<path fill="#29ABE2" d="M59.759,0.086h13.85v2.111H67.83v14.478h-2.387V2.197h-5.685V0.086z"/>
<path fill="#29ABE2" d="M75.876,0.109h2.372v16.565h-2.372V0.109z"/>
<path fill="#29ABE2" d="M95.116,0.109h2.22v16.565H94.95V3.786l-5.099,6.404h-0.439l-5.157-6.404v12.889h-2.373V0.109h2.246
	l5.511,6.805L95.116,0.109z"/>
<path fill="#29ABE2" d="M100.908,0.109h9.399v2.11h-7.026v5.053h6.788v2.122h-6.788v5.146h7.252v2.109h-9.627L100.908,0.109
	L100.908,0.109z"/>
<path fill="#FFFFFF" d="M11.265,0.109h2.374v16.565h-2.374v-7.21H1.947v7.208h-2.373V0.109h2.373v7.162h9.317L11.265,0.109
	L11.265,0.109z"/>
<path fill="#FFFFFF" d="M17.295,0.109h9.399v2.11h-7.026v5.053h6.788v2.122h-6.788v5.146h7.252v2.109h-9.626L17.295,0.109
	L17.295,0.109z"/>
<path fill="#FFFFFF" d="M29.52,16.674V0.109h4.155c1.677,0,3.008,0.415,3.994,1.245c0.985,0.829,1.479,1.953,1.479,3.368
	c0,0.964-0.243,1.798-0.727,2.501c-0.482,0.704-1.173,1.23-2.078,1.577c0.53,0.348,1.049,0.823,1.557,1.423
	c0.505,0.601,1.218,1.647,2.134,3.141c0.578,0.941,1.041,1.649,1.389,2.124l0.88,1.185h-2.827l-0.723-1.092
	c-0.022-0.039-0.07-0.105-0.143-0.201l-0.463-0.651l-0.735-1.21l-0.795-1.293c-0.489-0.682-0.938-1.223-1.346-1.622
	c-0.408-0.401-0.776-0.693-1.106-0.868c-0.329-0.18-0.88-0.27-1.658-0.27h-0.618v7.207h-2.372v0.002H29.52z M32.606,2.125h-0.712
	v5.229h0.902c1.204,0,2.029-0.103,2.474-0.309c0.449-0.205,0.796-0.516,1.045-0.932c0.25-0.414,0.375-0.887,0.375-1.416
	c0-0.522-0.14-0.994-0.417-1.417c-0.276-0.422-0.665-0.722-1.169-0.895C34.602,2.212,33.769,2.125,32.606,2.125z"/>
<path fill="#FFFFFF" d="M57.169,2.301c-1.705-1.619-3.835-2.432-6.396-2.432c-2.56,0-4.679,0.812-6.354,2.432
	c-1.676,1.622-2.513,3.669-2.513,6.146c0,2.409,0.834,4.418,2.497,6.018c1.662,1.602,3.743,2.404,6.24,2.404
	c2.615,0,4.781-0.803,6.5-2.404c1.719-1.6,2.58-3.623,2.58-6.066S58.87,3.922,57.169,2.301z M50.815,14.834
	c-3.57,0-6.464-2.895-6.464-6.465s2.894-6.464,6.464-6.464s6.464,2.894,6.464,6.464S54.385,14.834,50.815,14.834z"/>
</svg>
