<?xml version="1.0" encoding="utf-8"?>
<!-- Generator: Adobe Illustrator 16.0.4, SVG Export Plug-In . SVG Version: 6.00 Build 0)  -->
<!DOCTYPE svg PUBLIC "-//W3C//DTD SVG 1.1//EN" "http://www.w3.org/Graphics/SVG/1.1/DTD/svg11.dtd">
<svg version="1.1" id="Layer_1" xmlns="http://www.w3.org/2000/svg" xmlns:xlink="http://www.w3.org/1999/xlink" x="0px" y="0px"
	 width="110.108px" height="16.861px" viewBox="0 0 110.108 16.861" enable-background="new 0 0 110.108 16.861"
	 xml:space="preserve">
<g>
	<g>
		<path fill="#29ABE2" d="M59.722,0.212h13.744v2.094h-5.734v14.367h-2.369V2.306h-5.641V0.212z"/>
		<path fill="#29ABE2" d="M75.716,0.235h2.355v16.438h-2.355V0.235z"/>
		<path fill="#29ABE2" d="M94.808,0.235h2.203v16.438h-2.367V3.883l-5.059,6.354h-0.436l-5.118-6.354v12.79h-2.355V0.235h2.229
			l5.467,6.752L94.808,0.235z"/>
		<path fill="#29ABE2" d="M100.556,0.235h9.328v2.094h-6.973v5.014h6.737v2.105h-6.737v5.107h7.197v2.094h-9.553V0.235z"/>
	</g>
	<g>
		<path fill="#FFFFFF" d="M11.601,0.235h2.356v16.438h-2.356V9.519H2.354v7.154H0V0.235h2.354v7.107h9.246V0.235z"/>
		<path fill="#FFFFFF" d="M17.585,0.235h9.327v2.094H19.94v5.014h6.736v2.105H19.94v5.107h7.196v2.094h-9.552V0.235z"/>
		<path fill="#FFFFFF" d="M29.716,16.673V0.235h4.123c1.665,0,2.986,0.412,3.963,1.235c0.977,0.823,1.467,1.938,1.467,3.342
			c0,0.957-0.241,1.784-0.721,2.482c-0.478,0.698-1.164,1.22-2.06,1.565c0.526,0.346,1.041,0.816,1.544,1.412
			c0.501,0.596,1.209,1.635,2.119,3.117c0.573,0.934,1.033,1.637,1.378,2.107l0.873,1.176h-2.805L38.88,15.59
			c-0.023-0.039-0.07-0.105-0.141-0.2l-0.459-0.647l-0.729-1.2l-0.789-1.283c-0.486-0.676-0.932-1.213-1.336-1.611
			c-0.406-0.4-0.771-0.688-1.098-0.863c-0.326-0.177-0.873-0.266-1.645-0.266h-0.613v7.154H29.716z M32.778,2.235h-0.707v5.189
			h0.895c1.194,0,2.012-0.102,2.455-0.307c0.445-0.203,0.79-0.512,1.037-0.924c0.248-0.411,0.372-0.88,0.372-1.405
			c0-0.518-0.138-0.986-0.413-1.406c-0.275-0.419-0.661-0.716-1.161-0.888C34.758,2.321,33.932,2.235,32.778,2.235z"/>
		<path fill="#FFFFFF" d="M57.156,2.412C55.463,0.804,53.349,0,50.807,0c-2.544,0-4.646,0.804-6.31,2.412
			c-1.664,1.608-2.496,3.64-2.496,6.095c0,2.393,0.826,4.383,2.479,5.972c1.651,1.589,3.717,2.383,6.197,2.383
			c2.598,0,4.748-0.794,6.455-2.383c1.707-1.589,2.561-3.595,2.561-6.019S58.847,4.021,57.156,2.412z M55.424,12.896
			c-1.228,1.201-2.759,1.801-4.594,1.801c-1.829,0-3.351-0.588-4.567-1.766c-1.215-1.176-1.822-2.65-1.822-4.424
			c0-1.827,0.731-3.33,1.943-4.506c0.967-0.938,1.664-1.502,3.665-1.691v0.012v6.5l4.447,2.447l0.458-0.961L51.049,8.28V2.238
			c2.002,0.025,3.192,0.618,4.391,1.78c1.229,1.188,1.834,2.653,1.834,4.395C57.274,10.201,56.651,11.696,55.424,12.896z"/>
	</g>
</g>
</svg>
