<?xml version="1.0" encoding="utf-8"?>
<!-- Generator: Adobe Illustrator 16.0.4, SVG Export Plug-In . SVG Version: 6.00 Build 0)  -->
<!DOCTYPE svg PUBLIC "-//W3C//DTD SVG 1.1//EN" "http://www.w3.org/Graphics/SVG/1.1/DTD/svg11.dtd">
<svg version="1.1" id="Layer_1" xmlns="http://www.w3.org/2000/svg" xmlns:xlink="http://www.w3.org/1999/xlink" x="0px" y="0px"
	 width="97px" height="14.855px" viewBox="6.554 2.007 97 14.855" enable-background="new 6.554 2.007 97 14.855"
	 xml:space="preserve">
<g>
	<g>
		<path fill="#29ABE2" d="M59.166,2.194h12.108v1.846h-5.052v12.656h-2.088V4.039h-4.969V2.194z"/>
		<path fill="#29ABE2" d="M73.256,2.215h2.074v14.48h-2.074V2.215z"/>
		<path fill="#29ABE2" d="M90.075,2.215h1.94v14.48h-2.085V5.427l-4.456,5.599H85.09l-4.508-5.599v11.268h-2.075V2.215h1.963
			l4.817,5.948L90.075,2.215z"/>
		<path fill="#29ABE2" d="M95.139,2.215h8.218v1.844h-6.143v4.417h5.935v1.855h-5.935v4.499h6.34v1.845h-8.416L95.139,2.215
			L95.139,2.215z"/>
	</g>
	<g>
		<path fill="#FFFFFF" d="M16.774,2.215h2.076v14.48h-2.076v-6.302H8.627v6.302H6.554V2.215h2.073v6.26h8.146L16.774,2.215
			L16.774,2.215z"/>
		<path fill="#FFFFFF" d="M22.046,2.215h8.217v1.844H24.12v4.417h5.934v1.855H24.12v4.499h6.339v1.845h-8.415L22.046,2.215
			L22.046,2.215z"/>
		<path fill="#FFFFFF" d="M32.732,16.695V2.215h3.632c1.467,0,2.631,0.363,3.491,1.088c0.86,0.725,1.292,1.707,1.292,2.944
			c0,0.843-0.212,1.572-0.635,2.186c-0.421,0.615-1.025,1.076-1.815,1.379c0.464,0.304,0.917,0.718,1.361,1.243
			c0.441,0.525,1.065,1.44,1.866,2.746c0.505,0.823,0.911,1.442,1.214,1.856l0.77,1.035h-2.471l-0.631-0.952
			c-0.021-0.034-0.062-0.092-0.124-0.176l-0.405-0.57l-0.642-1.057l-0.695-1.131c-0.429-0.596-0.821-1.068-1.177-1.419
			c-0.358-0.353-0.68-0.606-0.967-0.76c-0.288-0.156-0.769-0.234-1.45-0.234h-0.54v6.302L32.732,16.695L32.732,16.695z
			 M35.429,3.976h-0.623v4.571h0.789c1.052,0,1.772-0.089,2.163-0.27c0.393-0.179,0.696-0.451,0.914-0.814
			C38.89,7.101,39,6.688,39,6.225c0-0.456-0.122-0.869-0.364-1.239c-0.243-0.369-0.583-0.631-1.023-0.782
			C37.174,4.052,36.447,3.976,35.429,3.976z"/>
		<path fill="#FFFFFF" d="M56.906,4.132c-1.492-1.416-3.354-2.125-5.594-2.125c-2.241,0-4.092,0.709-5.558,2.125
			c-1.466,1.417-2.199,3.207-2.199,5.37c0,2.108,0.728,3.861,2.184,5.261c1.455,1.4,3.274,2.1,5.459,2.1
			c2.289,0,4.183-0.699,5.687-2.1c1.504-1.399,2.256-3.167,2.256-5.303C59.141,7.324,58.396,5.55,56.906,4.132z M55.38,13.368
			c-1.083,1.059-2.431,1.587-4.047,1.587c-1.611,0-2.953-0.518-4.024-1.556c-1.07-1.036-1.605-2.335-1.605-3.897
			c0-1.609,0.644-2.934,1.712-3.97c0.852-0.826,1.466-1.323,3.229-1.489v0.01v5.726l3.918,2.156l0.403-0.847l-3.44-1.787V3.979
			c1.764,0.022,2.812,0.545,3.868,1.568c1.083,1.046,1.615,2.337,1.615,3.872C57.009,10.994,56.46,12.311,55.38,13.368z"/>
	</g>
</g>
</svg>
