<?xml version="1.0" encoding="utf-8"?>
<!-- Generator: Adobe Illustrator 16.0.0, SVG Export Plug-In . SVG Version: 6.00 Build 0)  -->
<!DOCTYPE svg PUBLIC "-//W3C//DTD SVG 1.1//EN" "http://www.w3.org/Graphics/SVG/1.1/DTD/svg11.dtd">
<svg version="1.1" id="Layer_1" xmlns="http://www.w3.org/2000/svg" xmlns:xlink="http://www.w3.org/1999/xlink" x="0px" y="0px"
	 width="900px" height="1400px" viewBox="0 0 900 1400" enable-background="new 0 0 900 1400" xml:space="preserve">
<g>
	<path fill="#94A3B3" d="M411.6,673.6L399.2,644.4c-10-23.2-20-46.4-29.601-69.601c-8.8-20.399-17.6-40.399-26-60.8
		c-6-14.4-6.8-28.8,0.4-42.8c7.2-13.601,18-22.8,33.2-26c21.6-4.8,43.6,4,54,23.6c3.2,6.4,5.2,13.2,5.6,20
		c0.8,8.8-0.8,17.601-2,26.4c-2,13.2-3.6,26.8-5.6,40l-5.601,39.2c-2,12.8-3.6,25.6-5.6,38.399l-5.6,38.8
		C412.4,672,412.4,672.4,411.6,673.6z M468,499.6c-6.4-4.399-13.6-1.199-20.4-2.8c-1.199-4.8-0.399-9.6,0.801-14.399
		c4-19.601,18.8-33.601,38.399-37.601c28-5.6,53.601,14,58,40.8c2,10.4-0.399,20.801-4.8,30.4c-11.6,27.2-23.2,54.8-34.8,82.4
		C494.8,622.8,484.4,647.2,474,671.6c-0.4,0.4-0.4,0.801-1.2,2c-0.399-1.6-0.8-2.8-1.2-3.6c-2.8-18.8-5.6-37.2-8.399-56
		c-3.601-24-7.2-48-10.8-72c-0.801-6-2-12-2.4-18c-0.4-9.2,3.2-16.4,12-20.4c1.6-0.8,2.8-1.6,4-2.399
		C467.2,500.8,467.2,500.4,468,499.6z M410.4,691.2c-4.801-3.2-10-6.4-14.801-10c-12.399-8.4-24.8-16.8-37.199-25.601
		c-28-19.199-56-38-84-57.199c-7.6-5.2-14.8-11.2-19.2-20c-9.6-18.4-8-36.4,3.6-53.2c12.8-18.4,43.2-28.4,67.2-11.601
		c8,5.601,14,13.601,18,22.801c9.2,20.8,18,41.6,27.2,62.399c10,23.2,20.399,46.4,30.399,69.2l8,17.6c0.801,1.601,1.2,3.2,2,4.801
		C410.8,690.8,410.4,691.2,410.4,691.2z M474.8,690c0.4-1.2,0.8-2.4,1.2-3.6c8.8-20.4,17.6-40.801,26.4-61.2
		c10-22.8,19.6-45.601,29.6-68.4c3.6-8,6.8-16,10.4-23.6c3.6-6.8,8-12.8,14-17.601c11.199-8.8,23.6-12,37.6-9.199
		c21.2,4,34.8,16.8,39.6,37.6c4.801,19.6-2,36.4-17.199,48.8c-6.801,5.601-14.801,10.4-22,15.601c-24.801,16.8-49.601,34-74.4,50.8
		c-13.6,9.2-27.6,18.8-41.2,28.399C477.6,688.4,476.4,689.2,474.8,690L474.8,690L474.8,690z M488,803.6c4,2.801,7.2,4.801,10,7.601
		c8.8,7.2,14,16.8,15.2,28C516,862.4,500,879.6,483.6,884.8c-3.199,0.8-6.8,1.601-10,1.601c-23.199,0-46.399,0-69.6,0
		c-1.2,0-2.4-0.4-3.2-0.4c-1.2-3.2-1.2-146.8-0.399-153.2c1.199,0,2.399-0.399,4-0.399c20.399,0,40.8-0.4,61.199,0
		c13.2,0.399,24.4,5.6,32.801,16c4.8,5.6,6.399,12.8,7.199,20c0.801,9.199-0.8,17.6-6.399,25.199c-2.4,3.2-5.2,5.601-8,8.4
		C490,802.4,489.2,802.8,488,803.6z M432,859.2c1.6,0,2.8,0.399,4,0.399c7.6,0,15.2,0,22.8,0c4.4,0,8-1.6,11.601-4
		c6.8-5.199,9.6-14,6.8-22.399c-2.4-8-11.601-13.2-18-12.8c-7.601,0.399-15.2,0-22.8,0c-1.2,0-2.801,0.399-4,0.399v38.4H432z
		 M432,794c1.6,0,2.8,0.4,4,0.4c6,0,11.6,0,17.6,0c10,0,17.601-7.2,18.4-17.601c0.4-8.8-5.2-16.8-15.2-17.6c-8-0.8-16-0.4-24-0.4
		l-1.2,0.4C432,758.8,432,794,432,794z M418,708.4c-2,0-3.6,0.399-4.8,0.399c-48.8,0-97.2,0-146,0c-9.2,0-18.4-0.399-26.8-4.399
		c-15.6-7.2-25.6-18.801-28.8-35.601c-3.6-17.2,0.8-32.8,13.2-45.6c8.8-8.8,19.6-13.601,32.4-14c12.8-0.4,24,4,34.4,10.8
		c16.8,11.6,33.6,23.2,50.4,34.8c24.8,17.2,49.2,34,74,51.2C416,706.4,416.8,707.2,418,708.4z M467.6,708.4
		c1.601-1.601,2.4-2,3.2-2.801c15.601-10.8,31.601-22,47.2-32.8c25.2-17.6,50.8-35.2,76-52.8c8.8-6,18.4-10,29.2-10.8
		c6.399-0.4,12.399,0.8,18,3.2C656.4,618.8,667.6,629.6,671.6,645.6c4.801,18,0.801,34.4-11.6,48.4c-6.4,7.2-14.8,12-24.4,13.6
		c-4.8,0.801-10,1.2-14.8,1.2c-49.2,0-98.399,0-147.6,0C471.6,708.8,470,708.4,467.6,708.4L467.6,708.4z M284.4,799.2v86
		c-3.6,1.2-27.6,1.2-32,0.399c-0.8-3.199-1.2-151.6-0.4-158.8c0.8,0.4,1.6,0.8,2,1.601c4.8,4.399,9.6,9.199,14.4,13.6
		c9.6,9.2,18.8,18.4,28.4,27.6c16.4,15.601,33.2,31.2,49.601,47.2c0.399,0.4,1.199,0.8,2.399,1.601v-86H380.4l0.399,0.399l0.4,0.4
		c0,0.8,0.399,1.6,0.399,2c0,51.2,0,102.8,0,154c0,0.399-0.399,0.8-0.399,1.6c-0.8-0.399-1.2-0.8-1.601-1.2
		C372,882,364,874.8,356.4,867.2L312.8,824.8c-8.4-8-16.4-16-24.8-24c-0.8-0.8-1.6-1.6-2.4-2L284.4,799.2L284.4,799.2z M632.8,855.2
		c1.2,3.6,1.601,25.6,0.4,30.399c-4,2.4-8.8,3.2-13.601,4.4c-20.8,4.8-40.8,2.8-59.199-8.4C539.6,869.2,527.2,851.2,521.6,827.6
		c-4.399-17.6-2.8-35.199,5.2-51.6c7.601-15.6,18.8-28,34-36.8c11.601-6.8,24-10.8,37.601-11.2c11.199-0.4,22,0.8,32.399,4.8
		c0.8,0.4,1.601,0.8,2.4,0.8l1.2,1.2c0,9.2,0.399,19.2-0.4,29.2c-13.2-7.6-26.4-10.4-40.8-6.8c-10,2.399-18.8,7.6-26,15.2
		c-18,18.8-18,45.199-7.2,64.8c7.2,12.8,18.8,20.8,33.2,24C606.8,864.4,620,861.6,632.8,855.2L632.8,855.2z"/>
</g>
</svg>
