<?xml version="1.0" encoding="utf-8"?>
<!-- Generator: Adobe Illustrator 16.0.4, SVG Export Plug-In . SVG Version: 6.00 Build 0)  -->
<!DOCTYPE svg PUBLIC "-//W3C//DTD SVG 1.1//EN" "http://www.w3.org/Graphics/SVG/1.1/DTD/svg11.dtd">
<svg version="1.1" id="Layer_1" xmlns="http://www.w3.org/2000/svg" xmlns:xlink="http://www.w3.org/1999/xlink" x="0px" y="0px"
	 width="14.141px" height="16.303px" viewBox="0 0 14.141 16.303" enable-background="new 0 0 14.141 16.303" xml:space="preserve">
<path fill="#29ABE2" d="M14.139,9.348c0-0.734-0.595-1.33-1.329-1.33s-1.33,0.596-1.33,1.33l-0.002,0.014
	c-0.067,2.371-2.01,4.275-4.399,4.279c-2.435,0.004-4.411-1.967-4.416-4.402C2.659,6.85,4.559,4.9,6.933,4.828L6.937,7.42
	l4.864-3.719L6.924,0l0.004,2.164C3.083,2.24-0.006,5.383,0,9.244c0.007,3.904,3.178,7.064,7.083,7.059
	c3.855-0.008,6.983-3.098,7.058-6.934L14.139,9.348z"/>
</svg>
