<?xml version="1.0" encoding="utf-8"?>
<!-- Generator: Adobe Illustrator 16.0.4, SVG Export Plug-In . SVG Version: 6.00 Build 0)  -->
<!DOCTYPE svg PUBLIC "-//W3C//DTD SVG 1.1//EN" "http://www.w3.org/Graphics/SVG/1.1/DTD/svg11.dtd">
<svg version="1.1" id="Layer_1" xmlns="http://www.w3.org/2000/svg" xmlns:xlink="http://www.w3.org/1999/xlink" x="0px" y="0px"
	 width="150px" height="83px" viewBox="0 0 150 83" enable-background="new 0 0 150 83" xml:space="preserve">
<g>
	<rect fill="#1AAAE4" width="150" height="83"/>
</g>
<g>
	<path fill="#FFFFFF" d="M82.1,51.129c-0.333-0.188-0.048-2.51-0.048-2.51l-2.509-0.284c0-0.141-0.143-2.225-0.143-2.225
		c1.991-0.664,2.398-4.582,2.398-4.582c1.264,0.697,2.084-2.399,2.084-2.399c1.495-4.303-0.742-4.044-0.742-4.044
		c0.711-3.221,0.369-7.974,0.369-7.974c-0.994-8.717-12.952-7.124-14.874-4.19c-5.34,0.92-2.836,9.737-2.836,9.737l0.712,2.649
		c-1.864,1.199-0.569,2.653-0.506,4.327c0.092,2.47,1.611,1.958,1.611,1.958c0.094,4.075,2.729,4.61,2.729,4.61
		c0.378,2.558,0,2.338,0,2.338h-2.272c0.08,0.648-0.142,2.35-0.142,2.35c-2.12,0.937-2.572,0.873-4.674,1.788
		c-4.065,1.769-5.738,2.774-5.738,2.774c-0.16,0.07-0.309,0.147-0.454,0.229c3.666,4.629,9.083,7.805,15.252,8.524h5.363
		c6.235-0.729,11.701-3.963,15.368-8.673c-1.241-1.078-3.23-2.074-6.024-2.791C84.347,52.055,82.1,51.129,82.1,51.129z"/>
	<path fill="#FFFFFF" d="M75,10.833c-16.936,0-30.667,13.73-30.667,30.667c0,16.938,13.731,30.667,30.667,30.667
		c16.937,0,30.667-13.729,30.667-30.667C105.667,24.563,91.937,10.833,75,10.833z M75,69.561c-15.497,0-28.06-12.563-28.06-28.061
		S59.503,13.44,75,13.44s28.061,12.562,28.061,28.06S90.497,69.561,75,69.561z"/>
</g>
</svg>
