<?xml version="1.0" encoding="utf-8"?>
<!-- Generator: Adobe Illustrator 16.0.4, SVG Export Plug-In . SVG Version: 6.00 Build 0)  -->
<!DOCTYPE svg PUBLIC "-//W3C//DTD SVG 1.1//EN" "http://www.w3.org/Graphics/SVG/1.1/DTD/svg11.dtd">
<svg version="1.1" id="Layer_1" xmlns="http://www.w3.org/2000/svg" xmlns:xlink="http://www.w3.org/1999/xlink" x="0px" y="0px"
	 width="950px" height="534px" viewBox="0 0 950 534" enable-background="new 0 0 950 534" xml:space="preserve">
<g>
	<rect fill="#1AAAE4" width="950" height="533.271"/>
</g>
<g>
	<path fill="#FFFFFF" d="M518.849,328.501c-2.139-1.211-0.308-16.123-0.308-16.123l-16.116-1.825c0-0.903-0.917-14.292-0.917-14.292
		c12.792-4.27,15.409-29.442,15.409-29.442c8.118,4.48,13.389-15.415,13.389-15.415c9.608-27.646-4.767-25.981-4.767-25.981
		c4.566-20.691,2.366-51.229,2.366-51.229c-6.388-56.005-83.21-45.77-95.561-26.925c-34.309,5.908-18.222,62.562-18.222,62.562
		l4.573,17.021c-11.979,7.707-3.659,17.048-3.249,27.805c0.593,15.87,10.35,12.58,10.35,12.58
		c0.609,26.183,17.536,29.619,17.536,29.619c2.43,16.434,0,15.022,0,15.022h-14.597c0.512,4.17-0.911,15.096-0.911,15.096
		c-13.621,6.019-16.528,5.608-30.029,11.488c-26.12,11.367-36.866,17.827-36.866,17.827c-1.028,0.452-1.985,0.948-2.918,1.466
		c23.549,29.742,58.353,50.146,97.995,54.774h34.46c40.065-4.684,75.178-25.467,98.74-55.723
		c-7.978-6.929-20.755-13.327-38.706-17.935C533.285,334.45,518.849,328.501,518.849,328.501z"/>
	<path fill="#FFFFFF" d="M473.234,69.601c-108.816,0-197.035,88.216-197.035,197.035c0,108.817,88.219,197.035,197.035,197.035
		c108.817,0,197.035-88.218,197.035-197.035C670.27,157.82,582.052,69.601,473.234,69.601z M473.234,446.923
		c-99.566,0-180.284-80.72-180.284-180.287c0-99.569,80.718-180.28,180.284-180.28c99.567,0,180.287,80.711,180.287,180.28
		C653.521,366.203,572.802,446.923,473.234,446.923z"/>
</g>
</svg>
