<?xml version="1.0" encoding="utf-8"?>
<!-- Generator: Adobe Illustrator 16.0.4, SVG Export Plug-In . SVG Version: 6.00 Build 0)  -->
<!DOCTYPE svg PUBLIC "-//W3C//DTD SVG 1.1//EN" "http://www.w3.org/Graphics/SVG/1.1/DTD/svg11.dtd">
<svg version="1.1" id="Layer_1" xmlns="http://www.w3.org/2000/svg" xmlns:xlink="http://www.w3.org/1999/xlink" x="0px" y="0px"
	 width="18px" height="18px" viewBox="8.875 8.875 18 18" enable-background="new 8.875 8.875 18 18" xml:space="preserve">
<circle fill="#DC0000" cx="17.851" cy="17.875" r="9"/>
<g id="Your_Icon">
	<path fill="#FFFFFF" d="M18.034,12.323c-0.046-0.161-0.118-0.606-0.186-0.606c-0.064,0-0.134,0.434-0.179,0.593
		c-0.79,2.806-3.885,4.257-3.728,7.458c0.047,0.92,0.608,2.706,2.553,3.311c-0.671-0.461-0.887-1.216-0.908-1.646
		c-0.092-1.854,1.701-2.695,2.158-4.32c0.027-0.092,0.067-0.343,0.104-0.343c0.038,0,0.08,0.257,0.106,0.352
		c0.462,1.617,2.249,2.46,2.157,4.312c-0.021,0.438-0.247,1.237-0.943,1.694c1.968-0.559,2.542-2.431,2.587-3.359
		C21.915,16.57,18.83,15.117,18.034,12.323z"/>
</g>
</svg>
