<?xml version="1.0" encoding="utf-8"?>
<!-- Generator: Adobe Illustrator 16.0.4, SVG Export Plug-In . SVG Version: 6.00 Build 0)  -->
<!DOCTYPE svg PUBLIC "-//W3C//DTD SVG 1.1//EN" "http://www.w3.org/Graphics/SVG/1.1/DTD/svg11.dtd">
<svg version="1.1" id="Layer_2" xmlns="http://www.w3.org/2000/svg" xmlns:xlink="http://www.w3.org/1999/xlink" x="0px" y="0px"
	 width="84.956px" height="12.119px" viewBox="0 0 84.956 12.119" enable-background="new 0 0 84.956 12.119" xml:space="preserve">
<g>
	<g>
		<path fill="#808285" d="M4.751,2.959c-0.183-0.198-0.419-0.356-0.71-0.478c-0.29-0.12-0.642-0.18-1.056-0.18H0V8.92h1.456V6.547
			h1.53c0.414,0,0.767-0.061,1.056-0.181c0.291-0.12,0.527-0.28,0.71-0.478C4.933,5.692,5.066,5.465,5.15,5.208
			C5.233,4.951,5.275,4.69,5.275,4.424c0-0.272-0.042-0.534-0.125-0.788S4.933,3.157,4.751,2.959z M3.759,4.934
			c-0.07,0.13-0.165,0.231-0.283,0.302c-0.117,0.07-0.252,0.118-0.407,0.144C2.914,5.403,2.753,5.416,2.586,5.416H1.456V3.432h1.131
			c0.167,0,0.328,0.013,0.482,0.038c0.155,0.024,0.29,0.072,0.407,0.144c0.118,0.07,0.212,0.171,0.283,0.301
			C3.83,4.043,3.865,4.214,3.865,4.424C3.865,4.635,3.83,4.805,3.759,4.934z M10.179,4.688C9.962,4.469,9.701,4.299,9.396,4.179
			C9.09,4.058,8.748,3.998,8.372,3.998c-0.377,0-0.717,0.06-1.02,0.182c-0.303,0.12-0.562,0.29-0.779,0.509
			c-0.216,0.219-0.382,0.485-0.5,0.797s-0.176,0.66-0.176,1.043c0,0.382,0.059,0.729,0.176,1.038C6.19,7.876,6.356,8.14,6.572,8.36
			c0.217,0.219,0.476,0.388,0.779,0.505c0.303,0.117,0.643,0.176,1.02,0.176c0.376,0,0.718-0.059,1.024-0.176
			c0.305-0.117,0.566-0.287,0.783-0.505c0.217-0.22,0.383-0.484,0.501-0.792c0.117-0.31,0.176-0.656,0.176-1.038
			c0-0.383-0.059-0.731-0.176-1.043C10.562,5.174,10.396,4.908,10.179,4.688z M9.484,7.09c-0.037,0.182-0.101,0.346-0.19,0.491
			c-0.09,0.145-0.211,0.261-0.362,0.347C8.781,8.015,8.594,8.059,8.372,8.059S7.963,8.015,7.815,7.928
			C7.666,7.842,7.547,7.726,7.458,7.581c-0.09-0.146-0.153-0.31-0.19-0.491C7.231,6.907,7.212,6.721,7.212,6.529
			c0-0.192,0.019-0.381,0.056-0.565c0.037-0.186,0.1-0.35,0.19-0.492C7.547,5.33,7.666,5.214,7.815,5.125
			C7.963,5.035,8.149,4.99,8.372,4.99s0.409,0.045,0.561,0.135c0.151,0.09,0.272,0.205,0.362,0.348
			c0.089,0.142,0.153,0.306,0.19,0.492C9.521,6.148,9.54,6.337,9.54,6.529C9.54,6.721,9.521,6.907,9.484,7.09z M16.464,7.372h-0.018
			L15.63,4.127h-1.279l-0.797,3.254h-0.019l-0.881-3.254h-1.39l1.521,4.793h1.362l0.816-3.216h0.018l0.853,3.216h1.354l1.511-4.793
			h-1.354L16.464,7.372z M23.705,5.778c-0.087-0.34-0.227-0.643-0.422-0.909c-0.194-0.266-0.444-0.478-0.746-0.636
			c-0.303-0.157-0.658-0.236-1.066-0.236c-0.365,0-0.697,0.065-0.997,0.195C20.175,4.322,19.917,4.5,19.7,4.725
			c-0.216,0.226-0.383,0.494-0.5,0.803c-0.117,0.308-0.176,0.643-0.176,1.001c0,0.371,0.057,0.71,0.171,1.019
			c0.115,0.31,0.277,0.575,0.487,0.797s0.467,0.395,0.77,0.515c0.303,0.12,0.643,0.181,1.02,0.181c0.544,0,1.007-0.125,1.391-0.371
			c0.383-0.247,0.668-0.658,0.853-1.233h-1.159c-0.043,0.148-0.161,0.289-0.352,0.421c-0.192,0.134-0.42,0.201-0.686,0.201
			c-0.371,0-0.655-0.097-0.854-0.289c-0.197-0.191-0.306-0.5-0.324-0.927h3.458C23.823,6.473,23.792,6.118,23.705,5.778z
			 M20.34,6.009c0.006-0.092,0.026-0.198,0.06-0.315c0.034-0.117,0.093-0.228,0.176-0.333c0.083-0.104,0.194-0.193,0.333-0.264
			c0.139-0.071,0.313-0.107,0.524-0.107c0.322,0,0.561,0.087,0.719,0.26c0.157,0.173,0.267,0.426,0.329,0.76H20.34z M26.894,4.072
			c-0.155,0.049-0.3,0.119-0.436,0.209c-0.136,0.089-0.257,0.198-0.361,0.324c-0.105,0.126-0.188,0.265-0.25,0.413h-0.019v-0.89
			h-1.251V8.92h1.317v-2.16c0-0.216,0.021-0.417,0.064-0.603c0.043-0.186,0.116-0.348,0.218-0.487
			c0.103-0.139,0.236-0.249,0.403-0.329c0.167-0.08,0.371-0.12,0.612-0.12c0.081,0,0.164,0.004,0.251,0.014
			c0.086,0.009,0.161,0.02,0.223,0.032V4.043c-0.106-0.03-0.201-0.046-0.288-0.046C27.209,3.998,27.048,4.022,26.894,4.072z
			 M32.466,5.778c-0.086-0.34-0.228-0.643-0.422-0.909c-0.195-0.266-0.443-0.478-0.747-0.636c-0.303-0.157-0.658-0.236-1.066-0.236
			c-0.365,0-0.697,0.065-0.997,0.195c-0.3,0.129-0.558,0.307-0.774,0.532c-0.216,0.226-0.383,0.494-0.5,0.803
			c-0.118,0.308-0.176,0.643-0.176,1.001c0,0.371,0.057,0.71,0.171,1.019c0.115,0.31,0.277,0.575,0.487,0.797
			c0.21,0.222,0.467,0.395,0.77,0.515c0.302,0.12,0.643,0.181,1.02,0.181c0.543,0,1.007-0.125,1.391-0.371
			c0.383-0.247,0.667-0.658,0.853-1.233h-1.158c-0.044,0.148-0.161,0.289-0.353,0.421c-0.192,0.134-0.42,0.201-0.686,0.201
			c-0.371,0-0.656-0.097-0.854-0.289c-0.198-0.191-0.306-0.5-0.325-0.927h3.458C32.583,6.473,32.552,6.118,32.466,5.778z
			 M29.1,6.009c0.007-0.092,0.026-0.198,0.061-0.315c0.034-0.117,0.092-0.228,0.176-0.333c0.083-0.104,0.194-0.193,0.333-0.264
			c0.139-0.071,0.313-0.107,0.523-0.107c0.322,0,0.562,0.087,0.719,0.26c0.157,0.173,0.267,0.426,0.329,0.76H29.1z M36.693,4.711
			h-0.019c-0.148-0.234-0.351-0.412-0.608-0.532c-0.256-0.122-0.526-0.182-0.81-0.182c-0.353,0-0.662,0.07-0.927,0.208
			c-0.267,0.139-0.486,0.323-0.663,0.552c-0.176,0.229-0.31,0.493-0.398,0.793c-0.09,0.299-0.135,0.61-0.135,0.932
			c0,0.333,0.045,0.655,0.135,0.964c0.089,0.309,0.222,0.582,0.398,0.82c0.176,0.238,0.399,0.426,0.672,0.566
			c0.271,0.138,0.587,0.208,0.945,0.208c0.315,0,0.598-0.058,0.848-0.172c0.251-0.114,0.453-0.301,0.608-0.561h0.018V8.92h1.252
			V2.301h-1.317V4.711z M36.684,7.085c-0.037,0.185-0.099,0.35-0.186,0.496c-0.087,0.145-0.202,0.261-0.347,0.347
			c-0.146,0.087-0.326,0.131-0.542,0.131c-0.204,0-0.379-0.046-0.524-0.135c-0.146-0.089-0.266-0.206-0.362-0.353
			c-0.095-0.145-0.165-0.31-0.208-0.496c-0.043-0.186-0.065-0.371-0.065-0.556c0-0.197,0.021-0.387,0.061-0.57
			c0.04-0.181,0.105-0.344,0.195-0.486c0.089-0.142,0.208-0.256,0.357-0.343c0.148-0.086,0.331-0.13,0.547-0.13
			c0.217,0,0.396,0.043,0.538,0.13c0.142,0.087,0.258,0.199,0.347,0.339c0.089,0.138,0.153,0.299,0.19,0.482
			c0.037,0.181,0.056,0.372,0.056,0.57C36.74,6.708,36.721,6.9,36.684,7.085z M45.774,4.601c-0.189-0.205-0.4-0.355-0.635-0.455
			c-0.236-0.099-0.472-0.148-0.714-0.148c-0.296,0-0.583,0.058-0.858,0.172c-0.274,0.114-0.492,0.295-0.653,0.542h-0.019v-2.41
			h-1.316V8.92h1.252V8.309h0.018c0.142,0.266,0.352,0.455,0.631,0.565c0.278,0.111,0.592,0.167,0.945,0.167
			c0.242,0,0.479-0.049,0.714-0.148c0.235-0.1,0.446-0.251,0.635-0.456c0.188-0.203,0.341-0.463,0.458-0.782
			c0.117-0.318,0.176-0.697,0.176-1.136s-0.059-0.817-0.176-1.136C46.115,5.065,45.962,4.805,45.774,4.601z M45.026,7.103
			c-0.042,0.186-0.11,0.35-0.203,0.491c-0.093,0.143-0.208,0.255-0.348,0.339c-0.138,0.083-0.307,0.125-0.505,0.125
			c-0.19,0-0.358-0.042-0.5-0.125c-0.142-0.084-0.259-0.196-0.353-0.339c-0.092-0.141-0.16-0.305-0.204-0.491
			c-0.043-0.185-0.065-0.376-0.065-0.574c0-0.205,0.021-0.399,0.065-0.585c0.043-0.186,0.111-0.349,0.204-0.491
			c0.093-0.142,0.211-0.255,0.353-0.338c0.142-0.083,0.31-0.125,0.5-0.125c0.199,0,0.368,0.042,0.505,0.125
			c0.141,0.083,0.255,0.197,0.348,0.338c0.093,0.143,0.161,0.306,0.203,0.491c0.043,0.186,0.066,0.38,0.066,0.585
			C45.092,6.727,45.07,6.918,45.026,7.103z M49.2,7.409h-0.02l-1.084-3.282h-1.4l1.678,4.497c0.037,0.092,0.055,0.191,0.055,0.296
			c0,0.142-0.042,0.272-0.125,0.389c-0.083,0.118-0.212,0.186-0.385,0.204c-0.128,0.007-0.259,0.003-0.389-0.008
			c-0.13-0.013-0.257-0.025-0.38-0.037v1.084c0.136,0.012,0.27,0.023,0.403,0.032c0.134,0.009,0.268,0.015,0.403,0.015
			c0.451,0,0.803-0.083,1.057-0.251c0.253-0.167,0.451-0.444,0.594-0.834l2.002-5.386h-1.363L49.2,7.409z M57.477,5.718
			l-0.257-0.112c-0.426-0.187-0.606-0.273-0.606-0.534c0-0.249,0.219-0.323,0.515-0.323c0.438,0,1.174,0.149,1.534,0.262V3.356
			c-0.309-0.112-0.901-0.311-1.804-0.311c-1.2,0-2.631,0.386-2.631,2.151c0,1.206,0.825,1.653,1.405,1.914l0.31,0.137
			c0.399,0.173,0.58,0.286,0.58,0.534c0,0.324-0.283,0.373-0.658,0.373c-0.334,0-1.095-0.173-1.534-0.285v1.703
			c0.504,0.148,1.251,0.31,1.961,0.31c1.096,0,2.63-0.249,2.63-2.237C58.921,6.401,58.083,5.978,57.477,5.718z M63.499,4.673
			l0.323-1.504h-1.29V1.181l-2.141,0.497l-0.309,1.491H59.18v1.504h0.902v3.306c0,1.828,1.302,1.901,1.998,1.901
			c0.542,0,1.368-0.124,1.742-0.21V7.992c-0.182,0.024-0.723,0.1-0.877,0.1c-0.271,0-0.412-0.087-0.412-0.535V4.673H63.499z
			 M66.645,3.804l-0.361-0.635h-1.947v6.588h2.45V5.245c0.129-0.074,0.425-0.223,0.812-0.223c0.335,0,0.658,0.062,0.903,0.125V3.182
			c-0.116-0.062-0.375-0.137-0.761-0.137C67.174,3.045,66.787,3.393,66.645,3.804z M70.308,2.361c0.684,0,1.212-0.534,1.212-1.18
			C71.52,0.535,70.991,0,70.308,0s-1.212,0.535-1.212,1.181C69.095,1.827,69.624,2.361,70.308,2.361z M69.082,9.757h2.45V3.169
			h-2.45V9.757z M76.368,3.045c-0.555,0-1.083,0.211-1.457,0.535L74.55,3.169h-1.985v8.95h2.45V9.744
			c0.232,0.05,0.554,0.137,0.864,0.137c0.902,0,2.682-0.049,2.682-3.455C78.56,3.319,77.374,3.045,76.368,3.045z M75.427,8.228
			c-0.09,0-0.296-0.025-0.412-0.062V4.984c0.155-0.086,0.438-0.199,0.58-0.199c0.4,0,0.516,0.162,0.516,1.641
			C76.11,7.88,75.853,8.228,75.427,8.228z M84.956,6.462c0-2.634-1.147-3.417-2.733-3.417c-1.547,0-3.017,0.659-3.017,3.444
			c0,3.156,1.87,3.392,3.404,3.392c0.851,0,1.715-0.236,1.999-0.335V7.831c-0.36,0.062-1.302,0.261-1.999,0.261
			c-0.606,0-0.967-0.137-0.967-0.845h3.313V6.462z M81.643,5.966c0.025-0.782-0.039-1.516,0.581-1.516
			c0.451,0,0.451,0.634,0.451,1.516H81.643z"/>
	</g>
</g>
</svg>
