<?xml version="1.0" encoding="utf-8"?>
<!-- Generator: Adobe Illustrator 16.0.4, SVG Export Plug-In . SVG Version: 6.00 Build 0)  -->
<!DOCTYPE svg PUBLIC "-//W3C//DTD SVG 1.1//EN" "http://www.w3.org/Graphics/SVG/1.1/DTD/svg11.dtd">
<svg version="1.1" id="Layer_1" xmlns="http://www.w3.org/2000/svg" xmlns:xlink="http://www.w3.org/1999/xlink" x="0px" y="0px"
	 width="16.225px" height="16.373px" viewBox="0 0 16.225 16.373" enable-background="new 0 0 16.225 16.373" xml:space="preserve">
<path fill="#FFFFFF" d="M8.111,0C3.635-0.003,0.005,3.663,0,8.184c0.005,4.525,3.635,8.19,8.111,8.189
	c4.479,0.002,8.109-3.664,8.113-8.189C16.221,3.663,12.591-0.003,8.111,0z"/>
<rect x="7.422" y="11.118" fill="#29ABE2" width="1.5" height="1.521"/>
<path fill="#29ABE2" d="M9.445,8.52C9.057,8.774,8.91,9.069,8.914,9.381v1.148L7.43,10.536V8.821c0-0.508,0.168-0.855,0.652-1.169
	l0.832-0.567c0.535-0.365,0.532-1.1,0.201-1.429C8.821,5.374,8.33,5.208,7.802,5.312C6.844,5.509,6.766,6.219,6.769,6.891v0.295
	H5.283C5.285,5.923,5.426,5.35,6.086,4.63C6.822,3.818,7.862,3.688,8.82,3.884c0.96,0.202,2.102,1.138,2.104,2.496
	C10.922,7.746,9.835,8.263,9.445,8.52z"/>
</svg>
