<?xml version="1.0" encoding="utf-8"?>
<!-- Generator: Adobe Illustrator 16.0.4, SVG Export Plug-In . SVG Version: 6.00 Build 0)  -->
<!DOCTYPE svg PUBLIC "-//W3C//DTD SVG 1.1//EN" "http://www.w3.org/Graphics/SVG/1.1/DTD/svg11.dtd">
<svg version="1.1" id="Layer_1" xmlns="http://www.w3.org/2000/svg" xmlns:xlink="http://www.w3.org/1999/xlink" x="0px" y="0px"
	 width="16.224px" height="16.373px" viewBox="0 0 16.224 16.373" enable-background="new 0 0 16.224 16.373" xml:space="preserve">
<symbol  id="Icon:_Direct_Offer__x28_Passive_x29_" viewBox="-8.112 -8.187 16.225 16.373">
	<g>
		<g>
			<path fill="#29ABE2" d="M-0.001,8.187c-4.477,0.003-8.106-3.663-8.111-8.184c0.005-4.525,3.635-8.19,8.111-8.189
				c4.479-0.002,8.109,3.664,8.113,8.189C8.108,4.523,4.479,8.189-0.001,8.187z M0.81-4.452h-1.5v1.521h1.5V-4.452z M1.333-0.333
				c-0.389-0.255-0.535-0.55-0.531-0.861v-1.148L-0.683-2.35v1.715c0,0.508,0.168,0.855,0.652,1.169l0.832,0.567
				c0.535,0.365,0.532,1.1,0.201,1.429C0.709,2.812,0.218,2.979-0.311,2.875c-0.958-0.197-1.036-0.907-1.033-1.579V1.001h-1.485
				c0.002,1.263,0.143,1.836,0.803,2.556C-1.29,4.368-0.25,4.498,0.708,4.303c0.96-0.202,2.102-1.138,2.104-2.496
				C2.81,0.44,1.723-0.076,1.333-0.333z"/>
		</g>
	</g>
</symbol>
<use xlink:href="#Icon:_Direct_Offer__x28_Passive_x29_"  width="16.225" height="16.373" x="-8.112" y="-8.187" transform="matrix(1 0 0 -1 8.1123 8.1865)" overflow="visible"/>
</svg>
