<?xml version="1.0" encoding="utf-8"?>
<!-- Generator: Adobe Illustrator 16.0.4, SVG Export Plug-In . SVG Version: 6.00 Build 0)  -->
<!DOCTYPE svg PUBLIC "-//W3C//DTD SVG 1.1//EN" "http://www.w3.org/Graphics/SVG/1.1/DTD/svg11.dtd">
<svg version="1.1" id="Layer_1" xmlns="http://www.w3.org/2000/svg" xmlns:xlink="http://www.w3.org/1999/xlink" x="0px" y="0px"
	 width="17.117px" height="7.836px" viewBox="0 0 17.117 7.836" enable-background="new 0 0 17.117 7.836" xml:space="preserve">
<g>
	<path fill="#B3B3B3" d="M12.836,4.403c0.059,0,0.115-0.024,0.158-0.065l4.057-3.956c0.064-0.063,0.082-0.159,0.049-0.244
		C17.065,0.055,16.983,0,16.893,0H4.434C4.379,0,4.327,0.02,4.286,0.055L0.079,4.011C0.006,4.071-0.019,4.17,0.014,4.258
		c0.033,0.087,0.117,0.146,0.209,0.146H12.836z M6.405,2.523l0.914-0.006C7.18,2.64,7.139,2.736,7.196,2.808
		c0.057,0.07,0.174,0.115,0.352,0.135L8.28,2.26C8.26,2.255,8.237,2.251,8.208,2.245C8.176,2.24,8.141,2.235,8.104,2.232
		C7.967,2.212,7.838,2.189,7.717,2.163C7.592,2.136,7.497,2.1,7.428,2.053c-0.07-0.047-0.102-0.104-0.096-0.175
		C7.34,1.809,7.401,1.72,7.522,1.613c0.119-0.108,0.266-0.205,0.443-0.291c0.174-0.086,0.359-0.157,0.559-0.22
		c0.197-0.061,0.404-0.11,0.615-0.147s0.418-0.063,0.615-0.076l0.268-0.252l0.375-0.015l-0.268,0.253
		c0.18,0.005,0.338,0.021,0.471,0.045c0.135,0.028,0.236,0.066,0.305,0.12c0.068,0.053,0.1,0.12,0.094,0.204
		c-0.006,0.083-0.061,0.183-0.168,0.299L9.92,1.555c0.088-0.088,0.111-0.162,0.076-0.222C9.958,1.275,9.868,1.247,9.721,1.251
		L9.106,1.834c0.045,0.005,0.09,0.011,0.137,0.016C9.29,1.855,9.336,1.863,9.387,1.87c0.27,0.039,0.457,0.091,0.562,0.153
		c0.102,0.062,0.158,0.131,0.166,0.2c0.008,0.071-0.016,0.142-0.074,0.214S9.926,2.574,9.87,2.63
		C9.817,2.68,9.731,2.743,9.608,2.818C9.483,2.894,9.323,2.967,9.125,3.039C8.93,3.11,8.698,3.174,8.432,3.229
		S7.866,3.315,7.528,3.325L7.233,3.604L6.844,3.6l0.297-0.278C6.674,3.303,6.374,3.227,6.245,3.095
		C6.116,2.965,6.168,2.775,6.405,2.523z"/>
	<path fill="#B3B3B3" d="M8.495,2.854c0.096-0.027,0.184-0.061,0.268-0.1s0.152-0.085,0.207-0.139
		c0.09-0.086,0.105-0.15,0.045-0.192s-0.199-0.08-0.416-0.112L7.932,2.942c0.084-0.004,0.174-0.014,0.271-0.027
		C8.303,2.899,8.401,2.879,8.495,2.854z"/>
	<path fill="#B3B3B3" d="M8.774,1.795l0.57-0.533c-0.072,0.003-0.146,0.01-0.229,0.022C9.038,1.297,8.958,1.316,8.877,1.34
		c-0.08,0.024-0.154,0.055-0.223,0.088c-0.068,0.034-0.127,0.074-0.176,0.12C8.401,1.619,8.385,1.673,8.432,1.71
		C8.481,1.747,8.596,1.776,8.774,1.795z"/>
	<path fill="#B3B3B3" d="M13.098,5.225H0.053V6.12h13.23c0.119,0,0.234-0.049,0.316-0.131l3.516-3.485V1.205L13.098,5.225z"/>
	<path fill="#B3B3B3" d="M0.053,6.94v0.896h13.68c0.117,0,0.232-0.047,0.314-0.132l3.068-3.054V3.37l-3.57,3.57H0.053z"/>
</g>
</svg>
