<?xml version="1.0" encoding="utf-8"?>
<!-- Generator: Adobe Illustrator 16.0.4, SVG Export Plug-In . SVG Version: 6.00 Build 0)  -->
<!DOCTYPE svg PUBLIC "-//W3C//DTD SVG 1.1//EN" "http://www.w3.org/Graphics/SVG/1.1/DTD/svg11.dtd">
<svg version="1.1" id="Layer_1" xmlns="http://www.w3.org/2000/svg" xmlns:xlink="http://www.w3.org/1999/xlink" x="0px" y="0px"
	 width="16.748px" height="15.964px" viewBox="0 0 16.748 15.964" enable-background="new 0 0 16.748 15.964" xml:space="preserve">
<symbol  id="Icon:_Reviews__x28_Passive_x29_" viewBox="-8.374 -7.982 16.748 15.964">
	<path fill="#29ABE2" d="M4.387,7.981h-8.772c-2.202,0-3.988-1.785-3.988-3.987v-3.59c0-2.201,1.786-3.986,3.988-3.986h3.058
		l3.731-4.4l-0.013,4.4h1.996c2.202,0,3.987,1.785,3.987,3.986v3.59C8.374,6.196,6.589,7.981,4.387,7.981z"/>
	<path fill="#29ABE2" d="M6.779,0.404c0-1.32-1.071-2.392-2.393-2.392h-8.772c-1.321,0-2.393,1.071-2.393,2.392v3.59
		c0,1.32,1.071,2.393,2.393,2.393h8.772c1.321,0,2.393-1.072,2.393-2.393V0.404z"/>
	<path fill="#FFFFFF" d="M-4.984,0.804h9.97c0.329,0,0.599-0.268,0.599-0.599c0-0.33-0.27-0.598-0.599-0.598h-9.97
		c-0.33,0-0.599,0.268-0.599,0.598C-5.583,0.536-5.314,0.804-4.984,0.804z"/>
	<path fill="#FFFFFF" d="M-4.984,2.798h9.97c0.329,0,0.599-0.269,0.599-0.599s-0.27-0.599-0.599-0.599h-9.97
		c-0.33,0-0.599,0.269-0.599,0.599S-5.314,2.798-4.984,2.798z"/>
	<path fill="#FFFFFF" d="M-4.984,4.792h9.97c0.329,0,0.599-0.269,0.599-0.599c0-0.331-0.27-0.598-0.599-0.598h-9.97
		c-0.33,0-0.599,0.267-0.599,0.598C-5.583,4.523-5.314,4.792-4.984,4.792z"/>
</symbol>
<use xlink:href="#Icon:_Reviews__x28_Passive_x29_"  width="16.748" height="15.964" x="-8.374" y="-7.982" transform="matrix(1 0 0 -1 8.374 7.9814)" overflow="visible"/>
</svg>
