<?xml version="1.0" encoding="utf-8"?>
<!-- Generator: Adobe Illustrator 16.0.4, SVG Export Plug-In . SVG Version: 6.00 Build 0)  -->
<!DOCTYPE svg PUBLIC "-//W3C//DTD SVG 1.1//EN" "http://www.w3.org/Graphics/SVG/1.1/DTD/svg11.dtd">
<svg version="1.1" id="Layer_1" xmlns="http://www.w3.org/2000/svg" xmlns:xlink="http://www.w3.org/1999/xlink" x="0px" y="0px"
	 width="20.001px" height="18.438px" viewBox="-3.712 -6.843 20.001 18.438" enable-background="new -3.712 -6.843 20.001 18.438"
	 xml:space="preserve">
<path fill="#808080" d="M15.859,9.175l-5.688-4.921c0.619-1.085,0.979-2.337,0.979-3.676c0-4.101-3.327-7.421-7.432-7.421
	c-4.104,0-7.431,3.321-7.431,7.421c0,4.099,3.327,7.423,7.431,7.423c1.766,0,3.389-0.618,4.664-1.646L8.354,6.386l5.667,4.906
	c0.517,0.45,1.309,0.393,1.758-0.125l0.203-0.234C16.436,10.415,16.379,9.625,15.859,9.175z M3.813,6.002
	c-2.999,0-5.429-2.429-5.429-5.424s2.43-5.424,5.429-5.424c2.998,0,5.429,2.428,5.429,5.424S6.811,6.002,3.813,6.002z"/>
</svg>
