<?xml version="1.0" encoding="utf-8"?>
<!-- Generator: Adobe Illustrator 16.0.4, SVG Export Plug-In . SVG Version: 6.00 Build 0)  -->
<!DOCTYPE svg PUBLIC "-//W3C//DTD SVG 1.1//EN" "http://www.w3.org/Graphics/SVG/1.1/DTD/svg11.dtd">
<svg version="1.1" id="Layer_1" xmlns="http://www.w3.org/2000/svg" xmlns:xlink="http://www.w3.org/1999/xlink" x="0px" y="0px"
	 width="12.577px" height="11.597px" viewBox="0 0 12.577 11.597" enable-background="new 0 0 12.577 11.597" xml:space="preserve">
<path fill="#FFFFFF" d="M12.307,10.073L8.731,6.978C9.12,6.296,9.346,5.509,9.346,4.667C9.346,2.089,7.254,0,4.673,0
	S0,2.089,0,4.667s2.092,4.668,4.673,4.668c1.11,0,2.131-0.389,2.933-1.035L7.588,8.32l3.564,3.085
	c0.324,0.283,0.822,0.247,1.105-0.078l0.127-0.148C12.669,10.853,12.634,10.356,12.307,10.073z M4.732,8.078
	c-1.886,0-3.414-1.527-3.414-3.411s1.528-3.41,3.414-3.41c1.885,0,3.414,1.526,3.414,3.41S6.617,8.078,4.732,8.078z"/>
</svg>
