<?xml version="1.0" encoding="utf-8"?>
<!-- Generator: Adobe Illustrator 16.0.4, SVG Export Plug-In . SVG Version: 6.00 Build 0)  -->
<!DOCTYPE svg PUBLIC "-//W3C//DTD SVG 1.1//EN" "http://www.w3.org/Graphics/SVG/1.1/DTD/svg11.dtd">
<svg version="1.1" id="Layer_1" xmlns="http://www.w3.org/2000/svg" xmlns:xlink="http://www.w3.org/1999/xlink" x="0px" y="0px"
	 width="25.373px" height="16.954px" viewBox="0 0 25.373 16.954" enable-background="new 0 0 25.373 16.954" xml:space="preserve">
<symbol  id="Icon:_Similar_Profiles__x28_Passive_x29_" viewBox="-12.687 -8.478 25.373 16.954">
	<g id="XMLID_6_">
		<g>
			<g>
				<path fill="#29ABE2" d="M1.415-1.021C1.251-0.863,1.088-0.705,0.938-0.527C-0.114,0.735-0.86,2.67-0.86,4.259
					c0,2.051,1.609,4.218,4.014,4.218c1.879,0,3.896-1.756,3.896-4.354c0-1.672-0.92-3.724-2.182-4.933
					C4.787-0.905,4.694-0.969,4.612-1.042L4.46-1.178l0.047-0.189c0.327-1.2,1.797-1.609,4.75-2.389l0.606-0.178
					c1.528-0.432,2.251-1.125,2.567-1.883h0.012c0.291-0.747,0.256-1.567,0.221-2.324c-0.012-0.105-0.012-0.232-0.022-0.337H-6.355
					C-6.367-8.299-6.38-8.13-6.403-7.909C-6.462-7.215-6.52-6.489-6.31-5.816c0.256,0.768,0.922,1.451,2.463,1.883l0.595,0.178
					c2.707,0.727,4.153,1.137,4.632,2.095l0.152,0.23L1.52-1.125C1.485-1.095,1.462-1.084,1.415-1.021z"/>
				<path fill="#29ABE2" d="M-7.161,0.8c-0.957,0.798-1.728,2.345-1.728,3.649c0,1.829,1.423,3.134,2.835,3.134
					c1.424,0,2.918-1.209,2.918-3.039c0-1.295-0.7-2.903-1.61-3.724c-0.022-0.031-0.058-0.064-0.081-0.085h0.104
					c0.223-0.651,1.156-0.904,3-1.409c0.583-0.083,0.467-0.379,0.525-0.589c-0.232-0.505-1.156-0.758-2.871-1.23l-0.408-0.115
					c-1.307-0.348-1.844-0.979-2.065-1.663h-6.114c0,1.127-0.432,2.788,2.019,3.472C-8.434-0.2-7.359,0.053-7.161,0.8z"/>
			</g>
		</g>
	</g>
</symbol>
<use xlink:href="#Icon:_Similar_Profiles__x28_Passive_x29_"  width="25.373" height="16.954" x="-12.687" y="-8.478" transform="matrix(1 0 0 -1 12.6865 8.4766)" overflow="visible"/>
</svg>
