<?xml version="1.0" encoding="utf-8"?>
<!-- Generator: Adobe Illustrator 16.0.4, SVG Export Plug-In . SVG Version: 6.00 Build 0)  -->
<!DOCTYPE svg PUBLIC "-//W3C//DTD SVG 1.1//EN" "http://www.w3.org/Graphics/SVG/1.1/DTD/svg11.dtd">
<svg version="1.1" id="Layer_1" xmlns="http://www.w3.org/2000/svg" xmlns:xlink="http://www.w3.org/1999/xlink" x="0px" y="0px"
	 width="35px" height="35px" viewBox="0 0 35 35" enable-background="new 0 0 35 35" xml:space="preserve">
<line fill="#FFFFFF" stroke="#FFFFFF" stroke-miterlimit="10" x1="34.5" y1="35" x2="34.5" y2="0"/>
<path fill="#FFFFFF" d="M27.838,10.614c-0.87,0.386-1.805,0.647-2.786,0.764c1.001-0.601,1.771-1.551,2.132-2.685
	c-0.938,0.557-1.975,0.961-3.081,1.178c-0.885-0.943-2.146-1.531-3.541-1.531c-2.68,0-4.852,2.172-4.852,4.852
	c0,0.381,0.042,0.751,0.125,1.107c-4.032-0.203-7.607-2.135-10.001-5.072c-0.417,0.717-0.656,1.551-0.656,2.44
	c0,1.684,0.855,3.169,2.158,4.039c-0.795-0.025-1.543-0.243-2.197-0.607c-0.001,0.021-0.001,0.042-0.001,0.062
	c0,2.352,1.673,4.312,3.893,4.759C8.623,20.03,8.194,20.09,7.752,20.09c-0.312,0-0.617-0.031-0.914-0.088
	c0.618,1.929,2.409,3.331,4.533,3.371c-1.66,1.301-3.753,2.077-6.026,2.077c-0.391,0-0.777-0.024-1.157-0.068
	c2.147,1.377,4.698,2.181,7.438,2.181c8.925,0,13.806-7.395,13.806-13.809c0-0.21-0.005-0.419-0.015-0.627
	C26.365,12.443,27.188,11.588,27.838,10.614"/>
</svg>
